<?xml version="1.0" encoding="utf-8"?>
<!-- Generator: Adobe Illustrator 26.5.1, SVG Export Plug-In . SVG Version: 6.00 Build 0)  -->
<svg version="1.0" id="Layer_1" xmlns="http://www.w3.org/2000/svg" xmlns:xlink="http://www.w3.org/1999/xlink" x="0px" y="0px"
	 viewBox="0 0 300 150" style="enable-background:new 0 0 300 150;" xml:space="preserve">
<style type="text/css">
	.st0{fill:#241816;}
	.st1{fill:#D5141A;}
</style>
<g>
	<path class="st0" d="M93.8,79.3c-0.1,6.2-1.3,11.9-3.7,17.4c-0.4,0.8-0.6,0.8-1.2,0.2c-9.9-9.2-19.7-18.3-29.6-27.5
		c-4.8-4.4-10.8-4.4-15.6,0C33.9,78.6,24,87.7,14.2,96.8c-0.7,0.7-0.9,0.6-1.3-0.3C1.8,72,17.1,42.9,43.6,38
		c22.8-4.2,44.2,9.9,49.3,32.6C93.5,73.5,93.7,76.5,93.8,79.3z"/>
	<path class="st1" d="M51.5,77.9c0.9,0,1.7,0.4,2.3,1.1c8.9,8.3,17.9,16.6,26.8,24.9c0.9,0.8,1.7,1.6,2.6,2.4c0.5,0.4,0.4,0.7,0,1.1
		c-2.5,2.8-5.4,5.3-8.5,7.4c-0.5,0.3-0.8,0.3-1.3-0.1c-4.5-4.2-8.9-8.3-13.4-12.5c-2.6-2.4-5.3-4.8-7.8-7.3c-0.6-0.5-0.9-0.5-1.5,0
		c-7,6.5-14,13-21,19.5c-0.7,0.6-1.1,0.6-1.8,0.1c-3-2.1-5.7-4.5-8.2-7.2c-0.5-0.6-0.4-0.8,0.1-1.3c9.7-9,19.4-17.9,29-26.9
		C49.7,78.5,50.4,78,51.5,77.9z"/>
	<path class="st0" d="M241.3,93.5c-1.2-0.1-1.8-0.9-2.4-1.9c-2.2-3.5-4.5-6.9-6.7-10.3c-0.4-0.6-0.8-0.9-1.5-0.9
		c-4.5,0-8.9,0-13.4,0c-0.8,0-1,0.2-0.9,1c0,1.9,0,3.9,0,5.8c0,2.5,0.6,3.1,3.1,3.1c4,0,7.9,0,11.9,0c0.9,0,1.2,0.2,1.2,1.2
		c0,2.5,0,2.5-2.5,2.5c-4,0-7.9,0-11.9,0c-1.2,0-2.4-0.1-3.5-0.4c-1.9-0.5-2.9-1.7-3.2-3.6c-0.1-0.7-0.2-1.5-0.2-2.2
		c0-4.8,0-9.6,0-14.5c0-1,0.3-1.4,1.3-1.3c0.9,0.1,1.9,0,2.8,0c0.7,0,1,0.3,1,1c0,0.9,0.1,1.9,0,2.8c-0.1,0.9,0.3,1,1.1,1
		c5.4,0,10.7,0,16.1,0c1,0,1.5,0.3,2.1,1.1c2.4,3.7,4.8,7.4,7.2,11.2c0.8,1.2,0.8,1.2,1.6,0c2.4-3.8,4.9-7.5,7.3-11.3
		c0.4-0.6,0.9-1,1.6-0.9c1,0.1,2,0,3,0c0.3,0,0.8-0.1,1,0.3c0.2,0.4-0.1,0.7-0.3,1c-2.5,3.9-4.9,7.8-7.4,11.7
		c-1.8,2.8-3.7,5.6-5.4,8.5c-1,1.7-2.4,2.5-4.3,2.6c-1.3,0.1-2.7,0.2-4,0c-1.6-0.2-0.5-1.6-0.8-2.4c-0.2-0.5-0.2-1.3,0.8-1.2
		c0,0,0.1,0,0.1,0C239,97.8,240.2,95.9,241.3,93.5z"/>
	<path class="st0" d="M170.5,94c-2.6,0-5.1,0-7.7,0c-0.5,0-0.9,0-1.4,0c-3.1-0.2-4.3-1.4-4.3-4.5c0-0.2,0-0.4,0-0.6
		c0-3.4,1.1-4.7,4.6-4.8c3.6-0.1,7.3,0,10.9-0.1c0.6,0,0.9,0.2,0.8,0.8c0,0.4,0,0.7,0,1.1c0.1,0.7-0.2,0.9-0.9,0.9
		c-2.9,0-5.7,0-8.6,0c-1.4,0-1.9,0.5-1.9,1.7c0,1.6,0.4,2.1,2,2.1c3.9,0,7.7,0,11.6,0c0.9,0,1.2-0.3,1.2-1.2c0-2.1,0-4.2,0-6.3
		c0-1.4-0.6-2.1-2-2.3c-0.6-0.1-1.3-0.1-1.9-0.1c-4.6,0-9.2,0-13.8,0c-1,0-1.4-0.2-1.4-1.3c0.1-2.5,0-2.5,2.5-2.5
		c4.5,0,9.1,0,13.6,0c1.2,0,2.4,0.1,3.6,0.3c3,0.7,4.3,2.2,4.4,5.2c0.1,3.2,0.1,6.4,0,9.5c0,1.6-0.6,2.1-2.2,2.1
		C176.6,94,173.5,94,170.5,94C170.5,94,170.5,94,170.5,94z"/>
	<path class="st0" d="M114.9,94c-2.6,0-5.3,0-7.9,0c-0.5,0-1.1,0-1.6-0.1c-2.8-0.3-3.9-1.5-3.9-4.3c0-0.6,0-1.1,0-1.7
		c0.1-2.2,1.1-3.4,3.2-3.8c0.7-0.1,1.5-0.2,2.2-0.2c3.2,0,6.4,0,9.6,0c1,0,1.4,0.3,1.2,1.3c0,0.1,0,0.2,0,0.3
		c0.1,0.9-0.2,1.2-1.2,1.2c-2.8-0.1-5.6,0-8.4,0c-1.4,0-1.9,0.5-1.9,1.8c0,1.6,0.4,2,2,2c3.8,0,7.6,0,11.5,0c1,0,1.3-0.4,1.3-1.3
		c0-2,0-3.9,0-5.9c0-1.7-0.7-2.5-2.4-2.7c-0.6-0.1-1.1-0.1-1.7-0.1c-4.6,0-9.2,0-13.8,0c-0.8,0-1.2-0.2-1.2-1.1c0-2.7,0-2.7,2.6-2.7
		c4.5,0,9,0,13.5,0c1.3,0,2.6,0.1,3.9,0.4c2.6,0.7,4,2.2,4,4.8c0.1,3.3,0.1,6.6,0,10c0,1.4-0.6,1.9-2.1,1.9
		C121,94,117.9,93.9,114.9,94C114.9,94,114.9,94,114.9,94z"/>
	<path class="st0" d="M281.7,94c-2.6-0.1-5.9,0.2-9.1-0.2c-3.4-0.5-5-2-5.1-5.5c-0.1-2-0.1-4,0-6c0.2-3.2,1.7-4.8,4.9-5.3
		c1-0.1,2-0.2,3-0.2c3.7,0,7.4,0,11.1,0c4.5,0,5.7,1.3,5.7,5.8c0,0.8,0,1.6,0,2.5c0,1.1-0.5,1.6-1.6,1.6c-4.7,0-9.4,0-14,0
		c-0.5,0-0.7-0.2-0.7-0.7c-0.2-2-0.1-2.1,1.9-2.1c2.8,0,5.6,0,8.5,0c0.8,0,1.1-0.3,1.1-1.1c0-2.2-0.4-2.5-2.6-2.5
		c-2.8,0-5.5,0-8.3,0c-0.5,0-1.1,0-1.6,0.1c-1.8,0.3-2.4,0.9-2.4,2.8c0,1.5,0,3,0,4.5c0,1.5,0.7,2.2,2.2,2.4
		c0.7,0.1,1.4,0.1,2.1,0.1c4.5,0,9.1,0,13.6,0c0.9,0,1.3,0.2,1.2,1.2c0,2.6,0,2.6-2.6,2.6C286.8,94,284.6,94,281.7,94z"/>
	<path class="st0" d="M195,94c-3.1,0-6.1,0-9.2,0c-0.8,0-1.2-0.2-1.1-1.1c0.1-3-0.4-2.5,2.5-2.6c4.9,0,9.9,0,14.8,0
		c1.6,0,2-0.4,2-1.9c0-1.3-0.4-1.7-1.7-1.8c-1.6,0-3.1,0-4.7,0c-2.4,0-4.8,0-7.2,0c-0.6,0-1.3,0-1.9-0.1c-2.7-0.4-3.7-1.7-3.7-4.4
		c0-4,1.3-5.4,5.3-5.4c5.6,0,11.3,0,16.9,0c0.8,0,1.1,0.2,1.1,1.1c-0.1,3.1,0.4,2.5-2.5,2.6c-4.6,0-9.3,0-13.9,0
		c-1.4,0-1.9,0.4-2,1.4c-0.1,1.3,0.4,1.8,1.9,1.8c3.9,0,7.9,0,11.8,0c1,0,1.9,0.1,2.9,0.4c1.5,0.5,2.4,1.5,2.6,3.1
		c0.1,1.1,0.1,2.3,0,3.4c-0.2,1.8-1.2,2.8-3.1,3.3c-1.5,0.4-3.1,0.2-4.6,0.2C199.1,94,197,94,195,94z"/>
	<path class="st0" d="M154,87.6c0,1.7-0.1,3.4,0,5c0.1,1.1-0.4,1.4-1.4,1.3c-0.8-0.1-1.6-0.1-2.4,0c-1.1,0.1-1.3-0.4-1.3-1.4
		c0-2.7,0-5.4,0-8.1c0-0.4,0-0.8,0-1.2c-0.2-1.7-0.8-2.4-2.5-2.4c-2.7-0.1-5.4-0.1-8.1-0.1c-0.9,0-1.3-0.2-1.3-1.2
		c0.1-2.8,0-2.8,2.7-2.8c3,0,6-0.2,9,0.2c3.6,0.5,5.2,2.2,5.3,5.9C154,84.5,154,86,154,87.6z"/>
	<path class="st0" d="M129,82.1c0-3.5,0-6.9,0-10.4c0-1,0.3-1.3,1.3-1.3c0.9,0.1,1.7,0.1,2.6,0c0.9-0.1,1.2,0.3,1.2,1.2
		c0,3.2,0,6.4,0,9.6c0,3.8,0,7.6,0,11.5c0,1-0.3,1.3-1.2,1.2c-0.9-0.1-1.8-0.1-2.7,0c-0.8,0.1-1.1-0.3-1.1-1.1
		C129,89.3,129,85.7,129,82.1z"/>
	<path class="st0" d="M264.3,82.3c0,3.5,0,6.9,0,10.4c0,1-0.3,1.4-1.3,1.3c-0.9-0.1-1.8,0-2.7,0c-0.8,0-1.1-0.3-1.1-1.1
		c0-3,0-6.1,0-9.1c0-4,0-8,0-12c0-1,0.3-1.4,1.3-1.3c0.9,0.1,1.8,0,2.7,0c0.8,0,1.1,0.3,1.1,1.1C264.3,75.1,264.3,78.7,264.3,82.3z"
		/>
</g>
</svg>
