<?xml version="1.0" encoding="utf-8"?>
<!-- Generator: Adobe Illustrator 26.5.1, SVG Export Plug-In . SVG Version: 6.00 Build 0)  -->
<svg version="1.1" id="Layer_1" xmlns="http://www.w3.org/2000/svg" xmlns:xlink="http://www.w3.org/1999/xlink" x="0px" y="0px"
	 viewBox="0 0 300 150" style="enable-background:new 0 0 300 150;" xml:space="preserve">
<style type="text/css">
	.st0{fill-rule:evenodd;clip-rule:evenodd;fill:#3CBCCB;}
	.st1{fill:#3CBCCB;}
</style>
<g>
	<path class="st0" d="M64.2,40.6c-3.4,0.4-6.6,1-9.7,2.7C46.7,47.4,43.2,56.6,39,63.8c-1.5,2.5-3,5.1-4.4,7.7
		c-0.8,1.4-1.8,2.7-1.7,4.3c0.1,1.5,1.2,2.9,1.9,4.2c1.7,2.9,3.3,5.8,5,8.7c2.3,3.9,4.7,7.8,6.9,11.8c1.3,2.3,2.5,5.3,4.5,7.2
		c2.3,2.1,4.6,2.2,7.6,2.2c0.9,0,2.1,0.2,3-0.1c2.3-0.9,0.5-3.3-0.2-4.5c-2.3-4.1-4.6-8.2-7-12.2c-2.3-3.8-4.5-7.7-6.7-11.5
		c-0.9-1.7-2.7-3.7-2.9-5.7c-0.2-2,2-4.6,2.9-6.2c2.2-3.8,4.4-7.5,6.5-11.3c1.3-2.2,2.6-4.8,5-6c2.4-1.2,5.2-0.9,7.8-0.9
		c0.8,0,2.7-0.2,2.6,1.2c-0.1,1.6-2,3.6-2.7,5c-2.3,4-4.5,8-6.9,12c-1,1.6-3,4-2.9,6c0.2,2.9,3.1,6.2,4.5,8.7
		c1.9,3.3,3.9,6.5,5.7,9.8c1,1.9,2,4.3,3.9,5.4c1.7,1,3.6,0.7,5.5,0.7c1.2,0,2.8,0.3,3.8-0.2c2.5-1.2-0.7-5.1-1.5-6.6
		c-2.5-4.3-4.9-8.6-7.4-12.8c-1-1.6-2.8-3.8-2.3-5.8c0.7-2.8,3.2-5.9,4.6-8.3c3.1-5.2,6.1-10.5,9.2-15.8c1.1-2,2.2-3.9,3.4-5.8
		c0.5-0.8,1.4-2,0.9-3c-0.8-1.6-5.5-1.7-5.7-1.7C81.7,40.2,69.9,39.8,64.2,40.6z M93.3,57.1c-1.6,0.3-2.2,1.5-3,2.8
		c-1.2,2.1-2.5,4.2-3.7,6.3c-1.2,2.1-2.5,4.2-3.7,6.3c-0.5,0.9-1.3,1.9-1.3,3c-0.1,2.3,2.6,5.4,3.7,7.3c1.4,2.3,2.7,4.7,4.1,7
		c0.6,1.1,1.2,2.5,2.2,3.2c0.8,0.5,1.8,0.5,2.7,0.5c2,0,4.5,0.4,6.5-0.1c2.4-0.6,0.9-3.3,0.2-4.6c-1.7-2.9-3.4-5.9-5.1-8.8
		c-0.8-1.3-2.1-2.8-2.1-4.3c0-1.6,1.3-3.2,2.1-4.5c1.7-2.8,3.2-5.7,4.8-8.5c0.8-1.4,2.7-3.8,0.9-5.2c-1.1-0.9-3.3-0.5-4.6-0.5
		C95.8,57,94.5,56.9,93.3,57.1z"/>
	<g transform="matrix(12.9337,0,0,12.9337,-2039.8,-6103.46)">
		<path class="st1" d="M169.2,477.7c0,0.2,0,0.4-0.1,0.6c-0.1,0.2-0.2,0.3-0.3,0.4s-0.3,0.2-0.4,0.3s-0.4,0.1-0.6,0.1
			c0,0-0.6,0-0.9,0c0,0-0.1,0-0.1,0c0,0,0-0.1,0-0.1c0-0.5,0-2.1,0-2.5c0-0.1,0.1-0.1,0.1-0.1c0.3,0,0.9,0,0.9,0
			c0.2,0,0.4,0,0.6,0.1c0.2,0.1,0.3,0.2,0.4,0.3c0.1,0.1,0.2,0.3,0.3,0.4C169.2,477.3,169.2,477.5,169.2,477.7z M168.8,477.7
			c0-0.2,0-0.3-0.1-0.5c0-0.1-0.1-0.3-0.2-0.3s-0.2-0.2-0.3-0.2s-0.3-0.1-0.4-0.1h-0.7v2.2h0.7c0.2,0,0.3,0,0.4-0.1
			c0.1,0,0.2-0.1,0.3-0.2s0.2-0.2,0.2-0.3C168.8,478,168.8,477.9,168.8,477.7z"/>
	</g>
	<g transform="matrix(12.9337,0,0,12.9337,-2043.32,-6103.46)">
		<path class="st1" d="M171.6,478.8C171.6,478.8,171.6,478.8,171.6,478.8C171.7,478.8,171.7,478.9,171.6,478.8
			c0.1,0.1,0.1,0.2,0.1,0.2c0,0,0,0.1-0.1,0.1c-0.3,0-1.2,0-1.5,0c0,0-0.1,0-0.1,0c0,0,0-0.1,0-0.1c0-0.5,0-2.1,0-2.5
			c0,0,0-0.1,0-0.1c0,0,0.1,0,0.1,0c0.3,0,1.3,0,1.5,0c0,0,0,0,0.1,0c0,0,0,0,0,0.1c0,0,0,0.1,0,0.2c0,0,0,0,0,0.1c0,0,0,0-0.1,0
			c-0.3,0-1.3,0-1.3,0v0.9c0,0,1,0,1.3,0c0,0,0.1,0,0.1,0.1c0,0,0,0.1,0,0.1c0,0,0,0,0,0.1c0,0,0,0-0.1,0c-0.3,0-1.3,0-1.3,0v1
			C170.3,478.8,171.3,478.8,171.6,478.8z"/>
	</g>
	<g transform="matrix(12.9337,0,0,12.9337,-2032.49,-6103.46)">
		<path class="st1" d="M173.8,476.3C173.9,476.3,173.9,476.3,173.8,476.3C173.9,476.3,173.9,476.4,173.8,476.3
			c-0.1,0.5-0.9,2.5-1.1,2.8c0,0,0,0,0,0c-0.1,0-0.2,0-0.3,0c0,0,0,0,0,0c-0.1-0.3-0.9-2.3-1.1-2.7c0,0,0,0,0,0c0,0,0,0,0,0
			c0.1,0,0.2,0,0.2,0c0,0,0.1,0,0.1,0c0,0,0,0,0,0.1l0.8,2c0,0,0,0.1,0,0.1c0,0.1,0,0.1,0,0.2c0-0.1,0-0.1,0-0.2c0-0.1,0-0.1,0-0.1
			l0.8-2c0,0,0,0,0-0.1c0,0,0.1,0,0.1,0C173.6,476.3,173.8,476.3,173.8,476.3z"/>
	</g>
	<g transform="matrix(12.9337,0,0,12.9337,-2029.03,-6103.46)">
		<path class="st1" d="M174.5,479.1C174.5,479.1,174.5,479.1,174.5,479.1C174.5,479.1,174.5,479.1,174.5,479.1
			c-0.1,0.1-0.3,0.1-0.3,0.1c0,0,0,0,0,0c0,0,0,0,0,0c0-0.3,0-2.4,0-2.7c0,0,0,0,0,0c0,0,0,0,0,0c0.1,0,0.2,0,0.3,0c0,0,0,0,0,0
			c0,0,0,0,0,0C174.5,476.7,174.5,478.7,174.5,479.1z"/>
	</g>
	<g transform="matrix(12.9337,0,0,12.9337,-2025.57,-6103.46)">
		<path class="st1" d="M176.5,478.1l-0.4-1.1c0,0,0-0.1,0-0.1c0,0,0-0.1,0-0.1c0,0.1-0.1,0.2-0.1,0.3l-0.4,1.1H176.5z M177.3,479
			C177.3,479,177.3,479,177.3,479c0,0.1,0,0.1-0.1,0.1c-0.1,0-0.2,0-0.2,0c0,0-0.1,0-0.1,0s0,0,0-0.1l-0.3-0.7h-1.3l-0.3,0.7
			c0,0,0,0,0,0.1c0,0,0,0-0.1,0c0,0-0.1,0-0.2,0c0,0,0,0-0.1,0c0,0,0,0,0-0.1c0.2-0.5,0.9-2.3,1.1-2.7c0,0,0,0,0.1,0
			c0.1,0,0.2,0,0.3,0c0,0,0.1,0,0.1,0C176.3,476.7,177.1,478.5,177.3,479z"/>
	</g>
</g>
</svg>
