<svg id="레이어_1" data-name="레이어 1" xmlns="http://www.w3.org/2000/svg" viewBox="0 0 50 20"><defs><style>.cls-1{fill:#191919;}</style></defs><rect class="cls-1" x="12.69" y="1.06" width="1.62" height="13.65"/><path class="cls-1" d="M25.25,7.6h0a4.49,4.49,0,0,0-1.79-1.85,5,5,0,0,0-2.57-.68,4.82,4.82,0,0,0-3.51,1.36A4.67,4.67,0,0,0,16,9.88a4.68,4.68,0,0,0,2.17,4,4.92,4.92,0,0,0,1.25.57,5,5,0,0,0,1.38.2,6.17,6.17,0,0,0,1.39-.15,5.2,5.2,0,0,0,1.19-.45h0V12.47l-.1.06a4.86,4.86,0,0,1-1,.51,4,4,0,0,1-1.29.22,3.25,3.25,0,0,1-2.41-1,3.4,3.4,0,0,1-.94-2.46,3.3,3.3,0,0,1,.92-2.4,3.16,3.16,0,0,1,2.35-.93,3.11,3.11,0,0,1,2.35,1,3.44,3.44,0,0,1,.9,2.45v4.64h1.63v-3.9a10.17,10.17,0,0,0-.13-1.9A3.85,3.85,0,0,0,25.25,7.6Z"/><path class="cls-1" d="M36.84,7.59a4.62,4.62,0,0,0-1.79-1.85,5.14,5.14,0,0,0-2.57-.68A4.79,4.79,0,0,0,29,6.43a4.64,4.64,0,0,0-1.39,3.45h0a4.84,4.84,0,0,0,.56,2.31,4.69,4.69,0,0,0,1.62,1.73,4.42,4.42,0,0,0,1.24.57,4.62,4.62,0,0,0,1.38.21,5.63,5.63,0,0,0,1.39-.17A4.75,4.75,0,0,0,35,14.1h0V12.46l-.1.06a4.86,4.86,0,0,1-1,.51,4,4,0,0,1-1.29.22,3.25,3.25,0,0,1-2.41-1,3.4,3.4,0,0,1-.94-2.46,3.27,3.27,0,0,1,.92-2.39A3.17,3.17,0,0,1,32.5,6.5a3.13,3.13,0,0,1,2.35,1,3.4,3.4,0,0,1,.9,2.46v4.31a3.21,3.21,0,0,1-.89,2.39,3.32,3.32,0,0,1-2.44.87,6.46,6.46,0,0,1-1.24-.13A14.47,14.47,0,0,1,29.76,17h0l0,0-.35,1.47,0,0a13.14,13.14,0,0,0,1.51.36,8.36,8.36,0,0,0,1.47.13h0A5,5,0,0,0,36,17.64a4.78,4.78,0,0,0,1.34-3.57V10.65a10.1,10.1,0,0,0-.13-1.9A4.1,4.1,0,0,0,36.84,7.59Z"/><path class="cls-1" d="M48.63,8a4.86,4.86,0,0,0-1.08-1.56,4.72,4.72,0,0,0-1.58-1,4.86,4.86,0,0,0-1.87-.35,4.77,4.77,0,0,0-1.86.35,4.87,4.87,0,0,0-1.58,1,5,5,0,0,0-1.09,1.57,4.75,4.75,0,0,0-.37,1.83,4.89,4.89,0,0,0,.37,1.85,4.79,4.79,0,0,0,1.09,1.56,4.92,4.92,0,0,0,3.44,1.39h0A4.8,4.8,0,0,0,46,14.32a4.65,4.65,0,0,0,1.57-1A4.67,4.67,0,0,0,49,9.88,4.62,4.62,0,0,0,48.63,8Zm-2.2,4.23a3.24,3.24,0,0,1-4.66,0,3.36,3.36,0,0,1-1-2.42,3.32,3.32,0,0,1,1-2.39,3.23,3.23,0,0,1,4.67,0,3.31,3.31,0,0,1,1,2.39A3.33,3.33,0,0,1,46.43,12.27Z"/><path class="cls-1" d="M9.21,10.27v0a3.64,3.64,0,0,1-1.06,2.1A3.1,3.1,0,0,1,6,13.2a3.1,3.1,0,0,1-2.31-1,3.79,3.79,0,0,1-.43-.56,3.25,3.25,0,0,1-.48-1.4,3.17,3.17,0,0,1,0-.44,3.3,3.3,0,0,1,.93-2.39A3.1,3.1,0,0,1,6,6.46h.13a3.32,3.32,0,0,1,1.29.33,3.49,3.49,0,0,1,.81.59v0l.12.14h0L5.24,9.17l-1.77.94.79,1.34L10.62,8.1h0l0-.11A5,5,0,0,0,6,5,4.9,4.9,0,0,0,1,9.84a3.69,3.69,0,0,0,0,.58,2.23,2.23,0,0,1,0-.37,4.91,4.91,0,0,0,.13,1,4.84,4.84,0,0,0,.5,1.2l.11.17A5,5,0,0,0,3.5,14.06a4.72,4.72,0,0,0,1.18.48A5.16,5.16,0,0,0,6,14.7a4.71,4.71,0,0,0,3.22-1.15l.07-.07a4.76,4.76,0,0,0,1.66-3l-1.69-.24Z"/></svg>