<?xml version="1.0" encoding="utf-8"?>
<!-- Generator: Adobe Illustrator 26.5.1, SVG Export Plug-In . SVG Version: 6.00 Build 0)  -->
<svg version="1.0" id="Layer_1" xmlns="http://www.w3.org/2000/svg" xmlns:xlink="http://www.w3.org/1999/xlink" x="0px" y="0px"
	 viewBox="0 0 300 150" style="enable-background:new 0 0 300 150;" xml:space="preserve">
<style type="text/css">
	.st0{fill:#FFFFFF;}
</style>
<g>
	<g>
		<path d="M26.6,88.2V83h2.9c1.4,0,4.3-0.3,4.3-3.7v-31c0-1.9-0.1-6.3-3.7-6.3h-3.3l3.7-6.6h220.7V42h-203c-1.9,0-4.3,0.4-4.3,4.2
			v9.8c0.4,1.1,2.2,1.6,3,1.6c0.9,0,3.9-0.1,3.9-4.9H55v15.9h-4.3c0-1.4-1.6-3.8-3.7-4c-1.7-0.1-3.2,0.4-3.2,2.7v12
			c0,1.3,1.6,3.7,5.3,3.7h2.6v5.2H26.6z"/>
		<path d="M153.9,49.4c0,1.1,1.4,2.3,2.3,2.6c1-0.7,6.3-3.7,10.5-3.7c4.2,0,6.3,2.2,6.3,5.5v15.8h-10V57.3c0-1.6-0.4-2.7-1.9-2.9
			c-1.4-0.1-5.2,2.9-6.2,4.3v21.8c0,2,2,3.4,3.7,3.4v4.2h-17.5v-4.3c1.7,0,3.6-0.6,3.7-3.2V56.5c0-0.7-1.1-2.7-3.7-2.7v-4.3H153.9z"
			/>
		<path d="M274,49.4h-17.5v4.3c2.6,0,3.7,2,3.7,2.7v24.2c-0.1,2.6-2,3.2-3.7,3.2v4.3H274V84c-1.7,0-3.7-1.4-3.7-3.4V56.7
			c0-1.7,1.9-3,3.7-3V49.4z"/>
		<path d="M115.2,49.4c0,1.1,1.4,2.3,2.3,2.6c1-0.7,6.3-3.7,10.5-3.7c4.2,0,6.3,2.2,6.3,5.5v15.8h-10V57.3c0-1.6-0.4-2.7-1.9-2.9
			c-1.4-0.1-5.2,2.9-6.2,4.3v21.8c0,2,2,3.4,3.7,3.4v4.2h-17.5v-4.3c1.7,0,3.6-0.6,3.7-3.2V56.5c0-0.7-1.1-2.7-3.7-2.7v-4.3H115.2z"
			/>
		<path d="M231.5,49.4c0,1.1,1.4,2.3,2.3,2.6c1-0.7,6.3-3.7,10.5-3.7s6.3,2.2,6.3,5.5v15.8h-10V57.3c0-1.6-0.4-2.7-1.9-2.9
			c-1.4-0.1-5.2,2.9-6.2,4.3v21.8c0,2,2,3.4,3.7,3.4v4.2h-17.5v-4.3c1.7,0,3.6-0.6,3.7-3.2V56.5c0-0.7-1.1-2.7-3.7-2.7v-4.3H231.5z"
			/>
		<path d="M94.8,76.1h-10V80c0,1.6-0.3,4.9-5,4.9c-4.7,0-6.2-3.2-6.2-5.5v-8.2c0-0.7,0.6-1.7,1.6-1.7h19.7V59c0-4.7-1-6.2-3-8.2
			c-2-2-9-2.6-12.2-2.6c-8,0-10.6,1.1-12.9,3c-2.3,1.9-3.2,5.7-3.2,8.6v16.2c0,4.3,0.9,7.3,3.6,10c2.7,2.7,11,2.7,12.8,2.7
			c1.7,0,7.5,0.1,11.6-2.9C95.7,83,94.8,76.1,94.8,76.1z M73.6,58.3c0-2.3,0.7-5.7,5.7-5.7s5.5,3.7,5.5,5.7v5.2
			c0,0.9-0.7,1.7-1.7,1.7h-7.7c-0.9,0-1.7-0.7-1.7-1.6V58.3z"/>
		<path d="M209.9,80.6V59c0-3.3-0.1-6.7-3.6-9.2c-3.4-2.4-9-2.3-11.2-2.3c-2.2,0-9.3,0-12.6,3.7c-3.3,3.7-2.7,7.3-2.7,8.7h9.4
			c0,0,0.6-4.9,1.9-6.2c1.3-1.3,4.7-2.7,7.4-0.4c1,0.8,1.4,1.9,1.4,3.2v6.2c0,0.6-0.6,1.4-1.3,1.4c0,0-13.1,0.3-15.3,2
			c-2.3,1.7-4.3,2.9-4.3,9.2c0,6.3,1.6,8.8,3.4,10c1.9,1.3,2.7,2.7,11.2,2.7h20.1V84C211.9,84,209.9,82.6,209.9,80.6z M199.8,83
			c0,0.4-0.6,0.9-1,0.9h-4.9c-3.5,0-4.5-3-4.5-4.9v-5.5c0-5.4,5.6-5.2,7.8-5.2c2.2,0,2.7,1.9,2.7,3.1V83z"/>
		<ellipse cx="264.6" cy="38.5" rx="9.1" ry="3.4"/>
	</g>
	<g>
		<path d="M268.9,114.9H31.6c-0.4,0-0.7-0.3-0.7-0.7V97.4c0-0.4,0.3-0.7,0.7-0.7h237.3c0.4,0,0.7,0.3,0.7,0.7v16.7
			C269.7,114.6,269.3,114.9,268.9,114.9z"/>
		<g>
			<path class="st0" d="M55.2,105.7c0,3.8-2.5,5.4-5.1,5.4c-2.5,0-5-1.6-5-5.4s2.5-5.4,5-5.4C52.7,100.4,55.2,102,55.2,105.7z
				 M47.1,106c0.3,2.8,1.7,4.1,3.4,4c1.7-0.1,2.9-1.7,2.7-4.5s-1.7-4.1-3.4-4C48.1,101.7,46.9,103.2,47.1,106z"/>
			<path class="st0" d="M63,100.5v1.7c0,0-0.7-0.6-2.2-0.6c-0.9,0-2.1,0-2.1,0v3.3h3.7l-0.2,1.5c0,0-0.6-0.4-1.8-0.4h-1.6v3.5
				c0,1.1,0.6,1.5,0.6,1.5h-3.2c0,0,0.6-0.4,0.6-1.5V102c0-1.1-0.6-1.5-0.6-1.5H63z"/>
			<path class="st0" d="M71,100.5v1.7c0,0-0.7-0.6-2.2-0.6c-0.9,0-2.1,0-2.1,0v3.3h3.7l-0.2,1.5c0,0-0.6-0.4-1.8-0.4h-1.6v3.5
				c0,1.1,0.6,1.5,0.6,1.5h-3.2c0,0,0.6-0.4,0.6-1.5V102c0-1.1-0.6-1.5-0.6-1.5H71z"/>
			<path class="st0" d="M74.7,102v7.5c0,1.1,0.6,1.5,0.6,1.5h-3.2c0,0,0.6-0.4,0.6-1.5V102c0-1.1-0.6-1.5-0.6-1.5h3.2
				C75.3,100.5,74.7,100.9,74.7,102z"/>
			<path class="st0" d="M85.2,108.6l-0.1,2c0,0-1.4,0.5-3.3,0.5c-2.4,0-5.3-1.5-5.3-5.4c0-3.7,2.8-5.4,5-5.4c1.9,0,2.9,0.5,2.9,0.5
				v2c0,0-1-1.4-2.7-1.4c-1.5,0-3.1,1.1-3.1,4.2c0,3.1,1.6,4.3,3.2,4.3C84,110,85.2,108.6,85.2,108.6z"/>
			<path class="st0" d="M88.9,102v7.5c0,1.1,0.6,1.5,0.6,1.5h-3.2c0,0,0.6-0.4,0.6-1.5V102c0-1.1-0.6-1.5-0.6-1.5h3.2
				C89.5,100.5,88.9,100.9,88.9,102z"/>
			<path class="st0" d="M97,109.5l-0.4-1.4h-3.5l-0.4,1.4c-0.4,1.1,0.1,1.5,0.1,1.5h-2.5c0,0,0.7-0.4,1.1-1.5l2.4-7.5
				c0.3-1.1-0.1-1.5-0.1-1.5h1.2c0.7,0,1.3,0.5,1.6,1.1l2.6,7.9c0.3,1.1,1.1,1.5,1.1,1.5h-3.2C96.9,111,97.4,110.6,97,109.5z
				 M96.3,107.1l-1.4-4.6l-1.4,4.6H96.3z"/>
			<path class="st0" d="M105.1,109.9c1.6,0,2.5-0.7,2.5-0.7l-0.3,1.8h-6.6c0,0,0.6-0.4,0.6-1.5V102c0-1.1-0.6-1.5-0.6-1.5h3.2
				c0,0-0.6,0.4-0.6,1.5v7.9C103.3,109.9,104.7,109.9,105.1,109.9z"/>
			<path class="st0" d="M116.7,109.9c1.6,0,2.5-0.7,2.5-0.7l-0.3,1.8h-6.6c0,0,0.6-0.4,0.6-1.5V102c0-1.1-0.6-1.5-0.6-1.5h3.2
				c0,0-0.6,0.4-0.6,1.5v7.9C114.9,109.9,116.3,109.9,116.7,109.9z"/>
			<path class="st0" d="M122.9,102v7.5c0,1.1,0.6,1.5,0.6,1.5h-3.2c0,0,0.6-0.4,0.6-1.5V102c0-1.1-0.6-1.5-0.6-1.5h3.2
				C123.5,100.5,122.9,100.9,122.9,102z"/>
			<path class="st0" d="M133.4,108.6l-0.1,2c0,0-1.4,0.5-3.3,0.5c-2.4,0-5.3-1.5-5.3-5.4c0-3.7,2.8-5.4,5-5.4c1.9,0,2.9,0.5,2.9,0.5
				v2c0,0-1-1.4-2.7-1.4c-1.5,0-3.1,1.1-3.1,4.2c0,3.1,1.6,4.3,3.2,4.3C132.2,110,133.4,108.6,133.4,108.6z"/>
			<path class="st0" d="M139.3,109.9c1.6,0,2.5-0.7,2.5-0.7l-0.3,1.8h-7c0,0,0.6-0.4,0.6-1.5V102c0-1.1-0.6-1.5-0.6-1.5h6.8v1.7
				c0,0-0.7-0.6-2.2-0.6c-0.9,0-2.1,0-2.1,0v3.3h3.7l-0.2,1.5c0,0-0.5-0.4-1.8-0.4h-1.6v3.8C137.1,109.9,138.9,109.9,139.3,109.9z"
				/>
			<path class="st0" d="M152.4,100.5c0,0-0.6,0.4-0.6,1.5v9.1h-0.3c-1.2,0-2.4-0.7-3-1.8l-3.6-6.4v6.6c0,1.1,0.6,1.5,0.6,1.5h-2.5
				c0,0,0.6-0.4,0.6-1.5V102c0-1.1-0.6-1.5-0.6-1.5h3l4.6,8.2V102c0-1.1-0.6-1.5-0.6-1.5H152.4z"/>
			<path class="st0" d="M161.1,108.3c0,1.8-1.5,2.8-4.2,2.8c-1.8,0-3.1-0.5-3.1-0.5l-0.1-2.1c0,0,1.3,1.5,3.4,1.5c1.1,0,2-0.5,2-1.4
				c0-2.2-5.4-2.4-5.4-5.6c0-1.6,1.5-2.6,3.6-2.6c1.8,0,3.2,0.5,3.2,0.5v2c0,0-1.2-1.4-3-1.4c-1.1,0-1.8,0.5-1.8,1.3
				C155.7,104.7,161.1,104.8,161.1,108.3z"/>
			<path class="st0" d="M167,109.9c1.6,0,2.5-0.7,2.5-0.7l-0.3,1.8h-7c0,0,0.6-0.4,0.6-1.5V102c0-1.1-0.6-1.5-0.6-1.5h6.9v1.7
				c0,0-0.7-0.6-2.2-0.6c-0.9,0-2.1,0-2.1,0v3.3h3.7l-0.2,1.5c0,0-0.5-0.4-1.8-0.4h-1.6v3.8C164.8,109.9,166.6,109.9,167,109.9z"/>
			<path class="st0" d="M172.6,100.5h1h0.8c2.9,0,4.9,2.3,4.9,5.2c0,2.9-2,5.2-4.9,5.2h-1.8h-2c0,0,0.6-0.4,0.6-1.5V102
				c0-1.1-0.6-1.5-0.6-1.5H172.6z M177.2,105.7c0-3.5-1.7-4.1-3.1-4.1h-0.8v8.2h0.8C175.5,109.9,177.2,109.3,177.2,105.7z"/>
			<path class="st0" d="M191.9,103.8c0,1.8-1.5,3.3-3.3,3.3h-2v2.4c0,1.1,0.6,1.5,0.6,1.5h-3.2c0,0,0.6-0.4,0.6-1.5V102
				c0-1.1-0.6-1.5-0.6-1.5h4.6C190.4,100.5,191.9,102,191.9,103.8z M187.8,101.6h-1.1v4.4h1.1c1.2,0,2.2-1,2.2-2.2
				C189.9,102.6,189,101.6,187.8,101.6z"/>
			<path class="st0" d="M202,111c0,0-0.6,0.2-1.7,0.2c-1.1,0-1.6-0.5-2-1.3l-1.7-3.2l-1.1,0.2v2.6c0,1.1,0.6,1.5,0.6,1.5h-3.2
				c0,0,0.6-0.4,0.6-1.5V102c0-1.1-0.6-1.5-0.6-1.5h4.9c1.6,0,2.9,1.3,2.9,2.9c0,1.8-1.6,2.6-2.2,2.8l1.9,3.3
				C201.2,110.6,202,111,202,111z M195.5,101.6v4.3l1.5-0.3c1-0.2,1.8-1.2,1.8-2.2c0-1-0.8-1.8-1.8-1.8H195.5z"/>
			<path class="st0" d="M212.2,105.7c0,3.8-2.5,5.4-5.1,5.4c-2.5,0-5-1.6-5-5.4s2.5-5.4,5-5.4C209.7,100.4,212.2,102,212.2,105.7z
				 M204.1,106c0.3,2.8,1.7,4.1,3.4,4c1.7-0.1,2.9-1.7,2.7-4.5s-1.7-4.1-3.4-4C205.1,101.7,203.9,103.2,204.1,106z"/>
			<path class="st0" d="M215.2,100.5h1h0.8c2.9,0,4.9,2.3,4.9,5.2c0,2.9-2,5.2-4.9,5.2h-1.8h-2c0,0,0.6-0.4,0.6-1.5V102
				c0-1.1-0.6-1.5-0.6-1.5H215.2z M219.7,105.7c0-3.5-1.7-4.1-3.1-4.1h-0.8v8.2h0.8C218,109.9,219.7,109.3,219.7,105.7z"/>
			<path class="st0" d="M231.4,102v7.5c0,1.1,0.6,1.5,0.6,1.5h-2.6v-1.2c-0.4,0.5-1.5,1.3-2.9,1.3c-2,0-3.1-1.3-3.1-3.3V102
				c0-1.1-0.6-1.5-0.6-1.5h3.2c0,0-0.6,0.4-0.6,1.5v5.7c0,1.5,0.6,2.2,1.7,2.2c1.8,0,2.3-1.8,2.3-1.8V102c0-1.1-0.6-1.5-0.6-1.5h3.2
				C232,100.5,231.4,100.9,231.4,102z"/>
			<path class="st0" d="M241.8,108.6l-0.1,2c0,0-1.4,0.5-3.3,0.5c-2.4,0-5.3-1.5-5.3-5.4c0-3.7,2.8-5.4,5-5.4c1.9,0,2.9,0.5,2.9,0.5
				v2c0,0-1-1.4-2.7-1.4c-1.5,0-3.1,1.1-3.1,4.2c0,3.1,1.6,4.3,3.2,4.3C240.6,110,241.8,108.6,241.8,108.6z"/>
			<path class="st0" d="M249.8,100.5l-0.3,1.6c0,0-0.3-0.5-1.4-0.5H247v7.9c0,1.1,0.6,1.5,0.6,1.5h-3.2c0,0,0.6-0.4,0.6-1.5v-7.9
				h-1.2c-1.1,0-1.5,0.5-1.5,0.5l0.3-1.6H249.8z"/>
		</g>
	</g>
</g>
</svg>
