<?xml version="1.0" encoding="utf-8"?>
<!-- Generator: Adobe Illustrator 26.5.1, SVG Export Plug-In . SVG Version: 6.00 Build 0)  -->
<svg version="1.0" id="Layer_1" xmlns="http://www.w3.org/2000/svg" xmlns:xlink="http://www.w3.org/1999/xlink" x="0px" y="0px"
	 viewBox="0 0 300 150" style="enable-background:new 0 0 300 150;" xml:space="preserve">
<style type="text/css">
	.st0{fill-rule:evenodd;clip-rule:evenodd;fill:#100C0B;}
	.st1{fill-rule:evenodd;clip-rule:evenodd;fill:#FFFFFF;}
	.st2{fill-rule:evenodd;clip-rule:evenodd;fill:#86BC40;}
	.st3{fill:#231815;}
</style>
<g>
	<path class="st0" d="M60,45.6l-5.7-5.3l1.3,3.7c0,0-3.2-1.4-8.9-1.4l2.6,2.3c0,0-5.6-0.9-9.4,1.9l4.1,0.5c0,0-7.1,2.9-9.1,7
		c-2,4.1-3.5,10.8-7.6,12.6c0,0,2.5,1,4,0.4c1.5-0.6,1.4-0.6,1.4-0.6s-5.4,7-3.3,13.4c1.1,3.2,3.2,6.9,0.6,7.6
		c-2.6,0.8-3.9-0.2-3.9-0.2s1.9,2.8,7.1,1.2l3.1,5.1c0,0,1.4,2.7,0.2,7.8c0,0,1.6-1.8,2.3-3.4c0.7-1.6,0.7-1.5,0.7-1.5
		s0.9,3.5,2.5,6l0.4-2c0,0,1.9,5.1,5.1,6.8c3.2,1.6,9.8,3.7,12.4,7.5c0,0,2.1-3.9,5.3-4.5c3.2-0.6,6.8-2.7,8.7-5.2
		c1.8-2.5,2.4-4.6,2.4-4.6l0.2,2.8c0,0,2.1-2,3-4.4c0.9-2.3,0.9-2.3,0.9-2.3s-0.7,2.6,2.7,4.7c0,0-1.4-4.8,0-7.7
		c1.4-2.9,2.4-5.8,2.4-5.8s1.5,2.1,4.4,1.5c2.9-0.6,3.1-1.5,3.1-1.5s-5.4,0.6-4.5-2.9c0.9-3.5,2.8-6.9,1.2-12.3
		c-1.6-5.4-1.6-5.4-1.6-5.4s1.7,1.2,4.4,0.5c0,0-4.4-2.6-5.6-7.1c-1.2-4.5-2.4-8.6-7.2-10.7c-4.8-2.1-5.9-2.5-5.9-2.5s4-0.8,5.3-0.6
		c1.3,0.2,1.3,0.2,1.3,0.2s-3-2.3-6-2.4c-3-0.1-3-0.1-3-0.1l3-1.8c0,0-3,0.4-6.2,0c-3.1-0.4-4.5,1.4-4.5,1.4l1.3-4.2
		C64.9,40,60,43.1,60,45.6"/>
	<path class="st1" d="M58.9,53.4c0,0,0.2-5.7-6.5-6.2c-2.7-0.2-3.3,0-3.3,0s3.4,0.3,4.8,2.4c0.1,0-7.3-1.7-10.9,2.6
		c-3.6,4.3-3.6,7.5-8.3,10.9c-2.4,1.8-2.4,1.7-2.4,1.7S36,64,40.6,59C43.7,55.5,48.1,48.1,58.9,53.4"/>
	<path class="st1" d="M61.1,53c0,0,0.1-4.7,8.4-5.8c-0.3,0.1-2.5,0.6-3.5,1.3c-1.3,1-1.9,1.9-1.9,1.9s6.5-2.1,11.5,2.2
		c5,4.4,5,6.3,8,9.5c2.3,2.4,3.4,2.8,3.4,2.8s-4.6-1.7-8.5-6.7C76.1,55,69.4,47.9,61.1,53"/>
	<path class="st1" d="M59.9,58.5c0,0-3.8-4-10-0.9c0,0,1.3,0.1,2.2,1c0,0-5.2,1.4-6.6,5.4c-1.4,4.1,2.1,2.6,2.3,2.6
		c0.2,0,3.6-0.7,4.5,0.1c1,0.8,1.1,0.3,2.1-0.1c0.7-0.3,1.2-1.7,1.2-1.7s-0.5,2.4,0.2,4.2c0.2,0.6-0.3,1.5-0.7,1.7
		c-1,0.5-0.3,2.1-0.3,2.1s-0.9-1.8-2.3-2.3c-1.2-0.4-2.2,1-3.9-0.2c-1-0.7-1.3-2.7-3.1-2.1c-1.8,0.7-2.9,2.6-1.5,5.5
		c1.4,2.9,2.5,4.1,2.5,4.1l1.6-2.8l0.1,3.2l2.3-0.5c0,0-2.6,3-2.2,7c0.4,4,2.3,4.6,5,2.8c2.7-1.7,4.4-3.2,4.4-3.2s1.4-0.6,0-2.4
		c-1.4-1.8-4-0.9-4.2-4.2c0,0,6.8,2.1,11.2,0c0,0-0.2,2.2-2.3,3.1c-2.1,1-2.8,2-1.6,3.1c1.2,1.1,4.4,5.8,8.4,3.9
		c0.7-0.5,2.6-2.3,1.4-5.5c-1.2-3.2-2.7-4.6-2.7-4.6l2.8,0.5l0.3-3l1.5,3c0,0,0-2.2,1-2.6c1-0.4,2.3-1.6,2.4-4
		c0.1-2.3-0.3-2.9-2.4-3.5c-2.1-0.6-2.5,1.7-4.5,2c-2,0.3-3.1-0.8-4.1,1.3c-0.6,1.3-0.8,1.4-0.9,1.4c0,0,0-0.1,0-0.1s1-1.5-0.2-3.3
		c-0.5-0.7,0-1.7-0.1-2.4c-0.3-2.1-0.3-2.3-0.3-2.3s0.8,2.6,2.6,2.1c1.8-0.6,3-1.3,4.5-0.7c1.5,0.6,4.2-0.5,2.9-2.8
		c-1.3-2.3-7-5.2-7-5.2l2.5-0.6C69.4,57.7,64.1,55.6,59.9,58.5"/>
	<path class="st2" d="M53.7,68.4c0,0-1.1,0.6-2.9-0.5c-1.7-1-1.5-0.6-1.5-0.6s0,1.9,1.7,2.1C52.7,69.6,53.9,70.2,53.7,68.4"/>
	<path class="st2" d="M65.3,68.4c0,0,1.1,0.6,2.9-0.5c1.7-1,1.5-0.6,1.5-0.6s0,1.9-1.7,2.1C66.3,69.6,65.1,70.2,65.3,68.4"/>
	<path class="st1" d="M65,88.7c0,0-4.1-3.5-8.4-1.5c-2.1,1-5.9,2.3-5.4,4c0.5,1.7,3.5,4.9,6.7,5.4c3.3,0.6,3.9,0.2,6.5-1.6
		C68.8,91.9,68.8,91,65,88.7"/>
	<path class="st1" d="M45.3,84.6c0,0-3.6,6.4-1.8,13.5l1.2-4.6c0,0-0.1,6.6,3.6,11.2c0.4,0.5,1.2,1,1.2,1s-1.8-2.6-0.6-2.6
		c1.5,0.1,0.2-3.5,0.2-3.5s1.7,5.7,5.2,8c3.6,2.3,5.6,4.5,5.6,4.5s2.5-3.3,5.2-4.5c2.6-1.3,3.9-2.6,5-4c0.5-0.6,0.7-1,0.7-1
		l-1.1,3.2c0,0,3.3-3.2,4-5.8c1-3.2,1-6.8,1-6.8l1.6,5.1c0,0,2.2-6.6-1.9-12.3c0,0-0.5,6-1.5,8.4c-1.1,2.4-1.1,2.2-1.1,2.2L70,91.6
		c0,0,0.8,4.5-2.4,8.7c-2.4,2.7-4.6,4.6-4.6,4.6s2.7-7.6,1.9-5.4c-1.9,4.7-3.7,1.1-3.8,0.6c0-0.1,0.1,1.5,0.1,1.7
		c0,3.7-1.8,2.5-1.8,2.5l-3.8-3.9c0,0-0.2-0.8,0.2,1.4c0.5,2.5,0.9,3.8,0.9,3.8s-3.7-2.6-5.5-7c-1.8-4.4-1.8-8.1-1.8-8.1l-1.5,5.4
		C47.8,95.8,45.1,92.9,45.3,84.6"/>
	<path class="st1" d="M45.4,60.6c0,0-13.2,3.7-12.9,17.8c0,3.4,0,3.4,0,3.4s0.1-3.9,1.6-6c1.5-2.1,1.8-3.3,1.8-3.3s0.5,4.8-0.6,8.2
		c-1.1,3.4-2.2,5.5-2.2,5.5s4.7-4.3,5.2-10.4C38.8,69.8,36.8,67.5,45.4,60.6"/>
	<path class="st1" d="M77.7,73.4c0,0-3,10.2-0.9,15.3c2.1,5.1,4,7.4,4,7.4s-1.3-2.2,0.7-4.9c2-2.7,1.8-5.4,0.3-7.6
		c-1.6-2.2-1.5-2.2-1.5-2.2s0.7,1.1,0.4,3.3c-0.3,2.2-0.6,4.1-0.6,4.1S75.3,86.4,77.7,73.4"/>
	<path class="st1" d="M41.1,74c0,0,3,10.2,0.9,15.3c-2.1,5.1-4,7.4-4,7.4s1.3-2.2-0.7-4.9c-2-2.7-1.8-5.4-0.3-7.6
		c1.5-2.2,1.5-2.2,1.5-2.2s-0.7,1.1-0.4,3.3c0.3,2.2,0.6,4.1,0.6,4.1S43.5,87,41.1,74"/>
	<path class="st1" d="M74.4,60.6c0,0,12,2.6,12.5,17.8c-0.1,1.6-0.1,1.6-0.1,1.6s-0.6-4.4-2.5-6.6c0,0-1.5,1.3-0.5,5
		c1.1,3.7,3.1,7.8,3.1,7.8s-6.8-7-6.2-10.9C81.1,73,83,66.2,74.4,60.6"/>
	<g>
		<path class="st3" d="M116.3,77.6c0,4.9,2.3,8,2.3,8l2.1-10.4c0,0,1.3,0.4,2.4,0.4c1,0,2.5-0.4,2.5-0.4L123.4,88
			c-1-0.3-2.5-0.6-4.1-0.7c-2,0-4.9,0.9-6.3,1.5c-1.2-1.2-4.5-5.1-4.5-10.8c0-6.9,8-12.5,8-12.5s1.7,0.5,3.7,0.4
			c2-0.2,6.3-1.5,6.7-1.5C126.9,64.4,116.3,72.2,116.3,77.6"/>
		<path class="st3" d="M139.4,65.2c2.3,1.7,4.2,4.1,4,7.3c-0.3,3.1-4.8,8.4-4.8,8.4l3.6,6.4c-0.4,0-1.8,0.1-3.1,0.4
			c-1.1,0.3-2.3,1-2.9,1.3h0l-3.7-6.6l-0.9,4.9c-0.4,0-1.8,0.1-3,0.4c-1.1,0.3-2.3,1-2.9,1.3l2.6-20l2.9-0.2
			c1.2-0.1,1.9-0.1,2.2-0.6c0.3-0.4-2.4-2-2.4-2l6.6-2.4L139.4,65.2z M132.7,79c0,0,3.2-3,3.6-5.9c0.3-2.8-2.2-4.6-2.2-4.6L132.7,79
			z"/>
		<path class="st3" d="M159.7,64.5c0,0-1,1.4-1.4,2.4c-0.4,1.1-0.3,2.3-0.3,2.3l-5.2,0.1l-1.6,4.9l6.1-0.2l-0.8,2.1
			c-0.4,1-0.4,2.2-0.4,2.2h-4.9l-1,4.7c0,0,2,0.4,4.1,0.4c2.4,0,4.5-0.4,4.5-0.4s-1.2,2.2-1.6,3.2c-0.4,1.1-0.5,2.2-0.5,2.2
			s-5.1-0.7-6.8-0.7c-1.5,0-6.7,0.4-6.7,0.4l3.1-17.3l2-1.3l-4.8,0.3l2.1-5.1L159.7,64.5z"/>
		<path class="st3" d="M176.1,64.5c0,0-1,1.4-1.4,2.4c-0.4,1.1-0.3,2.3-0.3,2.3l-5.2,0.1l-1.6,4.9l6.1-0.2l-0.8,2.1
			c-0.4,1-0.4,2.2-0.4,2.2h-4.9l-1,4.7c0,0,2,0.4,4.1,0.4c2.4,0,4.5-0.4,4.5-0.4s-1.2,2.2-1.6,3.2c-0.4,1.1-0.5,2.2-0.5,2.2
			s-5.1-0.7-6.8-0.7c-1.5,0-6.7,0.4-6.7,0.4l3.1-17.3l2-1.3l-4.8,0.3l2.1-5.1L176.1,64.5z"/>
		<path class="st3" d="M190.2,65.4c0,0,2.4,0.4,3.7,0.2c1.3-0.2,2.8-1.3,2.8-1.3l-5.2,23c-0.9,0-2.5,0-3.9,0.4
			c-1.3,0.3-2.7,1.2-3.1,1.4l-1.1-10.7l-2.3,8.9c-0.4,0-1.8,0.1-3,0.4c-0.8,0.2-1.6,0.6-2.2,0.9l1.5-21.7c0,0,2.8-0.3,4.7-0.4
			c1.9-0.1,5.1-2.2,5.1-2.2l0.7,11L190.2,65.4z"/>
		<path class="st3" d="M212.6,83c0.4-0.1,7.2-0.8,7.7-0.8c-0.2,0.2-1.4,1.6-2,3c-0.3,0.5-0.7,2.5-0.8,3c-0.8-0.3-2.8-0.9-4.9-1
			c-2.3-0.1-5.7,1.2-6.7,1.7c0,0-0.1,0-0.1,0l0.1-0.7l2.9-21.2c0,0,1.7-0.3,3-0.8c1.3-0.5,3.4-1.9,3.4-1.9S212.2,83.1,212.6,83"/>
		<path class="st3" d="M226.9,87.3c-0.3,0-1.8,0-3.1,0.4c-1.4,0.4-3.3,1.4-3.4,1.5l3.2-23.1c0,0,2.1-0.2,3-0.4
			c1.4-0.3,4.1-1.3,4.1-1.3L226.9,87.3z M228.7,63.9c-0.7,0.3-1.3,0.5-2.2,0.7c-0.8,0.2-1.7,0.4-2.4-0.1c-0.3-0.2-0.4-0.5-0.6-0.8
			c-0.1-0.2-0.2-0.4-0.2-0.6c0-0.5,0.4-0.9,0.8-1.1c0.1-0.1,0.2-0.1,0.3-0.1c0.5-0.3,1.1-0.4,1.7-0.5c0.8-0.2,1.5-0.3,2.3-0.3
			C231.6,61.3,230.1,63.3,228.7,63.9"/>
		<path class="st3" d="M250.1,76.9c-0.7,3.9-4.1,9-5.8,11.2c-1-0.3-2.6-0.7-4.3-0.7c-2.2-0.1-5.4,1.1-6.6,1.6
			c-2.8-2.7-3.4-5.1-3.5-9.1c-0.1-5.3,4.4-10.1,4.4-10.1h3.4c1,0,1.8-0.2,2-0.8c0.2-0.7-3.1-2.6-3.1-2.6s2.9,0.1,5.5-0.7
			c2.8-0.9,3.8-1.9,3.8-1.9C247,64.3,251,71.7,250.1,76.9 M238.8,77.9c-0.4,4.3,0.2,6.8,0.2,6.8s2.4-0.8,3.2-6.8
			c0.8-5.5-1.1-6.8-1.1-6.8S239.2,73.7,238.8,77.9"/>
		<path class="st3" d="M264.4,65.4c0,0,2.4,0.4,3.7,0.2c1.3-0.2,2.8-1.3,2.8-1.3l-5.2,23c-0.9,0-2.5,0-3.9,0.4
			c-1.3,0.3-2.7,1.2-3.1,1.4l-1.1-10.7l-2.3,8.9c-0.4,0-1.8,0.1-3,0.4c-0.8,0.2-1.6,0.6-2.2,0.9l1.5-21.7c0,0,2.8-0.3,4.7-0.4
			c1.9-0.1,5.1-2.2,5.1-2.2l0.7,11L264.4,65.4z"/>
	</g>
</g>
</svg>
