<?xml version="1.0" encoding="utf-8"?>
<!-- Generator: Adobe Illustrator 26.5.1, SVG Export Plug-In . SVG Version: 6.00 Build 0)  -->
<svg version="1.1" id="Layer_1" xmlns="http://www.w3.org/2000/svg" xmlns:xlink="http://www.w3.org/1999/xlink" x="0px" y="0px"
	 viewBox="0 0 300 150" style="enable-background:new 0 0 300 150;" xml:space="preserve">
<g>
	<path d="M42.8,75.4l0.6,0.1c2.3,0.1,3.1,0.5,3.4,0.8c0.2,0.2,0.7,0.9,0.7,3.3V88c0,0.4-0.1,0.7-0.2,0.9c-0.1,0.1-0.5,0.4-2.1,0.9
		c-0.7,0.2-1.5,0.4-2.3,0.5s-1.5,0.2-2.1,0.2c-3.5,0-6.6-1.3-9-3.9s-3.7-6.3-3.7-10.9c0-5.7,1.2-9.8,3.7-12.2
		c2.4-2.4,5.2-3.7,8.4-3.7s5.7,1,7.6,3.1c1.1,1.2,2.2,3.1,3.2,5.5l0.2,0.4h2.3L53,56.3h-2.2l-0.2,0.4c-0.2,0.5-0.4,0.8-0.7,1
		c-0.1,0.1-0.4,0.2-1.2,0.2c-0.1,0-0.6-0.1-3.2-0.8c-2-0.5-4.1-0.9-6.2-0.9c-5.8,0-10.5,2-14,6c-3.2,3.6-4.8,8-4.8,13
		c0,5.7,2,10.4,6,13.8c3.6,3.1,8.1,4.6,13.4,4.6c2.9,0,5.9-0.5,8.9-1.6c4.1-1.4,4.9-2.3,4.9-3.1V78.7c0-1.5,0.3-2.4,0.9-2.9
		c0.2-0.1,0.7-0.4,2.3-0.5l0.6-0.1V73H42.8V75.4L42.8,75.4z"/>
	<path d="M107.3,59.2l0.5,0.1c1.7,0.2,2.9,0.5,3.5,1.2c0.3,0.4,0.9,1.4,0.9,4.9V79c0,3.2-0.4,5.6-1.2,7.1c-1.3,2.7-4,4-8.1,4
		c-3.7,0-6.1-1.3-7.4-3.8c-0.7-1.5-1-3.5-1-6.2V63.3c0-2.3,0.4-3,0.7-3.2c0.2-0.2,1.1-0.7,3.5-0.9l0.6-0.1V57H83.2v2.2l0.6,0.1
		c2.4,0.2,3.2,0.6,3.5,0.9c0.2,0.2,0.7,1,0.7,3.2v16.4c0,3.4,0.6,6.1,1.8,8.2c2.1,3.9,6.2,5.9,12.1,5.9c6,0,10.1-2,12.3-6
		c1.2-2.1,1.8-5.1,1.8-8.8V65.3c0-3.4,0.5-4.5,0.8-4.9c0.4-0.4,1.3-1,3.6-1.2l0.5-0.1V57h-13.4L107.3,59.2L107.3,59.2z"/>
	<path d="M175.8,83.3c-1.3,2.8-2.7,4.6-4.3,5.4c-1.6,0.7-4.1,1.1-7.6,1.1c-4,0-5.4-0.1-5.7-0.2c-0.1-0.1-0.5-0.1-0.5-1.2V75.9h7.5
		c2.7,0,3.5,0.5,3.8,0.8c0.4,0.4,0.9,1.3,1.3,3.7l0.1,0.5h2.4V67.5h-2.4l-0.1,0.5c-0.4,2.4-1,3.4-1.3,3.7c-0.2,0.3-1.2,0.8-3.8,0.8
		h-7.5V61.3c0-0.8,0.1-1,0.1-1s0.2-0.1,0.9-0.1h7.1c3.7,0,5.1,0.5,5.6,0.9s1.3,1.5,1.8,4.1l0.1,0.5h2.5l-0.2-8.8h-29.2v2.2l0.6,0.1
		c2.3,0.2,3.1,0.6,3.4,0.9c0.2,0.2,0.7,1,0.7,3.2v23.4c0,2.4-0.4,3.1-0.6,3.2c-0.2,0.2-1,0.6-3.4,0.9l-0.5,0.1v2.2h29.5l2.7-10.1
		H176L175.8,83.3L175.8,83.3z"/>
	<path d="M221.2,72.6l-4.6-2.9c-1.6-1-2.9-2-3.7-2.9c-0.7-0.9-1.1-1.8-1.1-3.1c0-1.3,0.4-2.3,1.3-3.1c1-0.7,2.1-1.2,3.4-1.2
		c1.7,0,3.5,0.6,5.2,1.9c1.8,1.2,3.1,3.5,3.8,6.7l0.1,0.5h2.4L226.7,56h-2.1l-0.1,0.5c-0.1,0.5-0.2,0.9-0.4,1
		c-0.1,0.1-0.4,0.2-0.9,0.2c-0.1,0-0.5-0.1-2.7-0.9c-1.8-0.6-3.3-0.9-4.5-0.9c-3.1,0-5.6,1-7.4,2.8c-1.9,1.9-2.8,4.3-2.8,7.1
		c0,2.1,0.8,4.2,2.4,5.9c0.9,0.9,2,1.8,3.4,2.7l4.5,2.8c2.5,1.6,4.2,2.7,4.9,3.5c1.1,1.2,1.6,2.5,1.6,4c0,1.7-0.5,3-1.6,4
		s-2.4,1.5-3.9,1.5c-2.9,0-5.3-1.1-7.3-3.5c-1.2-1.3-2.1-3.2-3-5.4l-0.2-0.4h-2.4l1.8,12.4h2.3l0.1-0.5c0.1-0.4,0.2-0.7,0.4-1
		c0.1-0.2,0.3-0.2,0.7-0.2c0.1,0,0.5,0.1,2.9,0.9c1.8,0.6,3.6,1,5.3,1c3.4,0,6.2-1,8.4-2.9c2.2-2,3.4-4.5,3.4-7.4
		c0-2.2-0.6-4.1-1.9-5.7C226.2,76.2,224.1,74.5,221.2,72.6L221.2,72.6z"/>
	<path d="M278.1,77.7c-1.2-1.5-3.4-3.2-6.3-5.1l-4.6-2.9c-1.6-1-2.9-2-3.7-2.9c-0.7-0.9-1.1-1.8-1.1-3.1c0-1.3,0.4-2.3,1.3-3.1
		c1-0.7,2.1-1.2,3.4-1.2c1.7,0,3.5,0.6,5.2,1.9c1.8,1.2,3.1,3.5,3.8,6.7l0.1,0.5h2.4L277.3,56h-2.1l-0.1,0.5c-0.1,0.5-0.2,0.9-0.4,1
		c-0.1,0.1-0.4,0.2-0.9,0.2c-0.1,0-0.5-0.1-2.7-0.9c-1.8-0.6-3.3-0.9-4.5-0.9c-3.1,0-5.6,1-7.4,2.8c-1.9,1.9-2.8,4.3-2.8,7.1
		c0,2.1,0.8,4.2,2.4,5.9c0.9,0.9,2,1.8,3.4,2.7l4.5,2.8c2.5,1.6,4.2,2.7,4.9,3.5c1.1,1.2,1.6,2.5,1.6,4c0,1.7-0.5,3-1.6,4
		s-2.4,1.5-3.9,1.5c-2.9,0-5.3-1.1-7.3-3.5c-1.2-1.3-2.1-3.2-3-5.4l-0.2-0.4H255l1.8,12.4h2.3l0.1-0.5c0.1-0.4,0.2-0.7,0.4-1
		c0.1-0.2,0.3-0.2,0.7-0.2c0.1,0,0.5,0.1,2.9,0.9c1.8,0.6,3.6,1,5.3,1c3.4,0,6.2-1,8.4-2.9c2.2-2,3.4-4.5,3.4-7.4
		C280,81.2,279.4,79.4,278.1,77.7L278.1,77.7z"/>
</g>
</svg>
