<?xml version="1.0" encoding="utf-8"?>
<!-- Generator: Adobe Illustrator 26.5.1, SVG Export Plug-In . SVG Version: 6.00 Build 0)  -->
<svg version="1.0" id="Layer_1" xmlns="http://www.w3.org/2000/svg" xmlns:xlink="http://www.w3.org/1999/xlink" x="0px" y="0px"
	 viewBox="0 0 300 150" style="enable-background:new 0 0 300 150;" xml:space="preserve">
<style type="text/css">
	.st0{fill:#54565A;}
	.st1{fill-rule:evenodd;clip-rule:evenodd;fill:#FF5100;}
</style>
<g>
	<rect x="37.4" y="68.7" class="st0" width="9.9" height="33.1"/>
	<path class="st1" d="M42.4,50.4c3.8,0,6.9,3.1,6.9,6.9c0,3.8-3.1,6.9-6.9,6.9c-3.8,0-6.9-3.1-6.9-6.9
		C35.5,53.5,38.6,50.4,42.4,50.4"/>
	<path class="st0" d="M99.9,68.6L82,79.3h17c-2,7.2-8.7,12.8-16.5,12.8c-4.5,0-8.8-1.8-12-5.1c-3.1-3.2-4.9-7.6-4.8-12.1
		c0-4.5,1.8-8.8,5.1-12c3.2-3.2,7.5-5,12-5h0.2c3.5,0.1,6.7,1.1,9.4,3l7.8-7.6c-4.7-3.8-10.6-6.1-17.1-6.1h-0.2
		c-15.3,0-27.7,12.3-27.9,27.5c-0.2,15.4,12.1,27.8,27.6,27.9h0.1c14.4,0,26.7-11.7,26.7-28.6v-5.4H99.9z"/>
	<path class="st0" d="M150.4,68.7h-9.8v16.2c0,2.3-0.8,4.5-2.1,6c-1.5,1.6-3.5,2.5-5.4,2.5c-1.9,0-3.9-0.9-5.4-2.5
		c-1.2-1.5-2.1-3.7-2.1-6V68.7h-9.8v16.4c0,9.7,8.4,17.6,17.3,17.6c8.9,0,17.3-7.8,17.3-17.6V68.7z"/>
	<path class="st0" d="M179.7,91.5c-1.6,1.7-3.8,2.6-6.1,2.6c-2.3,0-4.5-0.9-6.1-2.6c-1.6-1.8-2.5-4-2.5-6.4c0-2.4,0.9-4.7,2.5-6.4
		c1.7-1.7,3.8-2.6,6.1-2.6c2.3,0,4.5,0.9,6.1,2.6c1.7,1.7,2.5,4,2.5,6.4C182.2,87.5,181.4,89.8,179.7,91.5 M184.1,68.7v3.1
		c-3.1-2.6-7.1-4.1-11.4-4.1c-9.7,0-17.6,7.8-17.6,17.5c0,9.7,7.8,17.5,17.6,17.5c4.3,0,8.3-1.5,11.4-4.1v3.2h8.1V68.7H184.1z"/>
	<path class="st0" d="M208.9,68.7h-8.8v33.1h9.6V84.4c1-5.3,6.7-9.6,12.3-7.1l3.8-8.5c-1.8-0.6-3.7-0.9-5.6-0.9
		c-4.4,0-8.8,1.4-11.2,4.6L208.9,68.7z"/>
	<path class="st0" d="M235.8,85.2c0-2.4,0.9-4.6,2.5-6.4c1.6-1.7,3.8-2.6,6.1-2.6c2.3,0,4.5,0.9,6.1,2.6c1.6,1.8,2.5,4,2.5,6.4
		c0,2.4-0.9,4.7-2.5,6.4c-1.6,1.7-3.8,2.6-6.1,2.6c-2.3,0-4.4-0.9-6.1-2.6C236.7,89.9,235.8,87.6,235.8,85.2 M255.5,101.7h9.1V53.3
		h-9.1v19.3c-3.1-3.1-7.5-5-12.3-5c-9.7,0-17.5,7.9-17.5,17.6c0,9.7,7.8,17.6,17.5,17.6c4.8,0,9.1-1.9,12.3-5V101.7z"/>
</g>
</svg>
