<?xml version="1.0" encoding="utf-8"?>
<!-- Generator: Adobe Illustrator 26.5.1, SVG Export Plug-In . SVG Version: 6.00 Build 0)  -->
<svg version="1.1"
	 id="svg2985" xmlns:svg="http://www.w3.org/2000/svg" xmlns:cc="http://creativecommons.org/ns#" xmlns:rdf="http://www.w3.org/1999/02/22-rdf-syntax-ns#" xmlns:dc="http://purl.org/dc/elements/1.1/"
	 xmlns="http://www.w3.org/2000/svg" xmlns:xlink="http://www.w3.org/1999/xlink" x="0px" y="0px" viewBox="0 0 310.8 172.7"
	 style="enable-background:new 0 0 310.8 172.7;" xml:space="preserve">
<style type="text/css">
	.st0{fill:#F26522;}
</style>
<g id="g2993" transform="matrix(1.25,0,0,-1.25,0,359.99995)">
	<g id="g3213" transform="matrix(2.8598468,0,0,2.8598468,-714.6333,-1842.9179)">
		<g>
			<path class="st0" d="M258.7,718.1c2.4,0,4.4,2,4.4,4.4c0,2.4-2,4.4-4.4,4.4c-2.4,0-4.4-2-4.4-4.4
				C254.3,720.1,256.3,718.1,258.7,718.1z"/>
			<path class="st0" d="M262.6,704.9l0,8.1h-7.6v-6.7c0-3.4,3-8.8,11.6-8.8c8.6,0,11.6,4.2,11.6,8.8v0v38.4h-7.6l0-39.7
				c0-2.2-1.8-4-3.9-4C264.3,701,262.6,702.8,262.6,704.9z"/>
			<path class="st0" d="M306.7,704.3v13.9c0,2-2,4.6-5,4.6c3,0,5,4.1,5,6.4v7.9c0,5.1-4.7,7.6-7.6,7.6h-15.3v-46.5h15.3
				C304.8,698.2,306.7,701.9,306.7,704.3z M291.5,740.3h4.2c2.8,0,3.5-0.6,3.5-7.9c0-7.3-0.7-7.8-3.5-7.8l-4.2,0V740.3z M296.1,702
				l-4.6,0v18.7h4.6v0c3,0,3-2.1,3-9.4C299.1,704.1,299.1,702,296.1,702z"/>
			<path class="st0" d="M335.4,713h-7.6l0-8.1c0-2.2-1.8-3.9-3.9-3.9c-2.2,0-3.9,1.8-3.9,3.9v39.8h-7.6v-46.5h23.1V713z"/>
			<polygon class="st0" points="265.8,744.7 251.7,744.7 258.7,728.6 			"/>
		</g>
	</g>
</g>
</svg>
