<?xml version="1.0" encoding="utf-8"?>
<!-- Generator: Adobe Illustrator 26.5.1, SVG Export Plug-In . SVG Version: 6.00 Build 0)  -->
<svg version="1.0" id="Layer_1" xmlns="http://www.w3.org/2000/svg" xmlns:xlink="http://www.w3.org/1999/xlink" x="0px" y="0px"
	 viewBox="0 0 300 150" style="enable-background:new 0 0 300 150;" xml:space="preserve">
<g>
	<path d="M81.8,27.7c6.9,0,13.8,0,20.8,0c-3.9,5-7.8,9.8-11.6,14.6c-3.9,4.8-7.8,9.7-11.7,14.6c5.4,7.7,10.9,15.4,16.3,23.1
		c0.1,0,0.2,0,0.2-0.1c0,0,0.1,0,0.1-0.1c0-0.1,0.1-0.1,0.1-0.2c6.4-17.2,12.9-34.5,19.3-51.7c0.9-0.2,15.3-0.2,16.8-0.1
		c7.4,19.7,14.8,39.5,22.2,59.2c0.1,0,0.1,0,0.1,0c0,0,0-0.1,0.1-0.1c0-0.1,0-0.2,0-0.4c0-19.5,0-39,0-58.5c0,0,0-0.1,0.1-0.2
		c0.1,0,0.3-0.1,0.5-0.1c10.5,0,21-0.1,31.5,0.1c4,0,7.9,1.1,11.4,3.1c4.6,2.6,7.3,6.5,8.4,11.6c0.6,2.9,0.7,5.9,0.5,8.8
		c-0.3,3-1,6-2.4,8.7c-1.4,2.7-3.4,4.8-6,6.3c-0.5,0.3-0.9,0.5-1.5,0.9c4.9,6.9,9.7,13.7,14.5,20.5c0.1,0,0.1,0,0.1,0
		c0,0,0-0.1,0-0.1c0-0.1,0-0.2,0-0.2c0-0.1,0-0.2,0-0.4c0-19.6,0-39.1,0-58.7c0-0.1,0-0.2,0-0.2c0,0,0-0.1,0-0.1c0,0,0-0.1,0.1-0.2
		c5.3,0,10.6,0,16.1,0c0,1.5,0,3,0,4.4c0,1.5,0,3,0,4.5c0,1.5,0,2.9,0,4.4c0,1.5,0,2.9,0,4.4c0,1.5,0,2.9,0,4.4c0,1.5,0,3,0,4.5
		c0,1.5,0,2.9,0,4.4s0,2.9,0,4.4s0,2.9,0,4.4c0,1.5,0,3,0,4.5c0,1.5,0,2.9,0,4.5c9.8,0.1,19.6,0,29.4,0c0,4.7,0,9.3,0,13.9
		c-1.2,0.2-57.7,0.3-63.3,0.1c-4.9-6.9-9.9-13.9-14.8-20.8c-2.8,0-5.5,0-8.3,0c-0.2,1.2-0.1,2.4-0.1,3.5c0,1.1,0,2.2,0,3.4
		c0,1.2,0,2.3,0,3.5s0,2.3,0,3.5c0,1.1,0,2.2,0,3.4c0,1.2,0,2.3,0,3.5c-1,0.2-30.1,0.3-32.4,0.1c-1.3-3.7-2.5-7.4-3.8-11.1
		c-7.3,0-14.6,0-22,0c-1.3,3.7-2.6,7.4-4,11.1c-9,0-18.1,0-27,0c0.5-1.4,1.2-2.7,1.5-4.1c0.7-2.8,0.3-5.4-0.9-8
		c-0.9-1.9-2-3.5-4-4.5c-0.9-0.5-1.7-1.2-2.5-1.8c0.9-3.2,1-6.5-0.3-9.7c-0.2-0.6-0.5-1.2-0.9-1.6c-2.4-2.9-5.3-4.9-9.2-4.9
		c-2.2,0-4.3,0.1-6.5,0.2c-1.1,0-2.2-0.1-3.2,0.1c-1.6,0.2-2.4,1.3-2.3,2.9c0,0.5,0.3,0.9,0.5,1.4c-0.5,2-1.1,4-1.7,6.1
		c1,0.6,2.2,0.8,2.9,1.8c0.1,0.3,0.1,0.7,0.2,1.1c0.3,0.1,0.7,0.2,1,0.2c2.4,0.3,4.8,0.5,7.2,0.8c1.2,0.1,2.3,0.4,3.3,1.1
		c0.1,0.1,0.2,0.2,0.5,0.5c-0.5-0.1-0.7-0.2-0.9-0.2C65.7,71.3,64.8,71,64,71c-2.7-0.1-5.5,0-8.2,0c-0.1,0-0.2,0-0.4,0.1
		c-0.3,0.5-0.5,0.9-0.8,1.4c-0.5,0-0.9,0-1.2,0c-0.9-0.5-1.4-1.3-1.7-2.3c-0.7,0.7-1.4,1.4-2,2.1c-0.6,0.8-0.4,1.4,0.4,2
		c0.4,0.3,0.8,0.5,1.3,0.8c-0.2,0.9-0.4,1.8-0.6,2.9c0.3,0.2,0.5,0.3,0.8,0.5c-0.3,0.3-0.5,0.4-0.8,0.7c0.3,0.4,0.5,0.8,0.8,1.3
		c0,0.2-0.1,0.6-0.1,0.9c-0.3,1.6,0.5,2.6,2.1,2.6c1,0,1.9,0,2.9,0c0.6,0,1.2,0.1,1.8,0.3c0.5,0.1,1.1,0.3,1.2,0.7
		c-0.1,0.7-0.2,1.3-0.2,1.9c0,1,0,1.9,0,2.9c0,0.3-0.1,0.6-0.1,0.9c-5.5,0-11,0-16.4,0c-0.2-1-0.3-60.9-0.1-62.8c5.5,0,11,0,16.5,0
		c0.1,0.1,0.1,0.1,0.2,0.2c0,0,0,0.1,0.1,0.1c0,0.1,0,0.2,0,0.2c0,9.1,0,18.2,0,27.6c0.4-0.4,0.6-0.6,0.8-0.9
		c3.1-3.9,6.2-7.8,9.3-11.7c4-5.1,8.1-10.1,12.1-15.2C81.8,27.9,81.8,27.8,81.8,27.7z M171,40.8c0,5.4,0,10.7,0,16
		c0.2,0,0.4,0.1,0.5,0.1c3.5,0,7,0,10.5,0c1.4,0,2.8-0.2,4.2-0.7c1.9-0.7,3.4-2,4-4c0.9-2.5,0.7-5-0.4-7.4c-0.7-1.5-1.9-2.5-3.3-3.2
		c-1.3-0.6-2.8-0.9-4.2-0.9c-3.5-0.1-6.9,0-10.4,0C171.6,40.7,171.3,40.8,171,40.8z M123.9,45.2c-0.1,0-0.2,0-0.3,0
		c-2.3,6.9-4.5,13.9-6.8,20.8c-0.1,0.3-0.2,0.6-0.2,0.8c0,0,0,0.1,0,0.1c0,0,0.1,0.1,0.1,0.1c2.1,0.2,13.1,0.1,14.1-0.1
		C128.5,59.7,126.2,52.5,123.9,45.2z"/>
	<path d="M182.5,105.4c0.2,1.4,0.2,4.7,0,5.7c-3.7,0-7.4,0-11.1,0c-0.2,1.2-0.1,2.4-0.1,3.5c0,1.1,0,2.2,0,3.4c0,1.2,0,2.3,0,3.5
		c-1.1,0.2-12.8,0.3-15.7,0.1c-2.1-2.9-4.2-5.9-6.3-8.9c-1,0-1.9,0-3,0c-0.1,1,0,2,0,3c0,1,0,1.9,0,2.9c0,1,0,2,0,3
		c-1,0.2-5.6,0.3-7.2,0.1c0-9.1,0-18.2,0-27.3c0.4,0,0.7,0,1,0c4.2,0,8.3,0,12.5,0c2,0,3.9,0.4,5.7,1.5c2.3,1.5,3.5,3.6,3.7,6.3
		c0.1,1.6,0,3.2-0.5,4.8c-0.7,2.1-1.8,3.7-3.8,4.6c-0.1,0.1-0.3,0.2-0.5,0.4c2.2,3.1,4.4,6.2,6.6,9.3c0.1,0,0.2,0,0.2,0
		c0,0,0.1-0.1,0.1-0.1c0-8.9,0-17.7,0-26.5c0.1-0.1,0.1-0.1,0.2-0.2c0,0,0.1-0.1,0.1-0.1c6.5,0,13,0,19.5,0c0.2,0,0.3,0,0.6,0.1
		c0.2,1.9,0,3.7,0.1,5.7c-1.5,0.1-3,0-4.4,0c-1.4,0-2.8,0-4.2,0c-1.4,0-2.9,0-4.4,0c0,1.8,0,3.6,0,5.4c1.2,0.2,2.4,0.1,3.7,0.1
		c1.2,0,2.5,0,3.7,0C180,105.4,181.2,105.4,182.5,105.4z M146.3,99.9c0,2.4,0,4.7,0,7c1.4,0,2.8,0,4.2,0c0.4,0,0.8,0,1.2,0
		c1.8-0.3,2.7-0.9,3-2.8c0.4-1.9-0.8-3.6-2.7-4C150.1,99.7,148.3,100,146.3,99.9z"/>
	<path d="M87.2,121.5c-2.6,0-5,0-7.5,0c-0.6-1.6-1.1-3.2-1.7-4.8c-3.2,0-6.2,0-9.4,0c-0.6,1.6-1.2,3.2-1.8,4.8c-7.9,0-15.8,0-23.7,0
		c0-9.1,0-18.2,0-27.3c2.4,0,4.7,0,7,0c0,0,0.1,0.1,0.1,0.1c0,0,0,0.1,0.1,0.1c0,0.1,0,0.2,0,0.2c0,6.8,0,13.6,0,20.5
		c0,0,0,0.1,0.1,0.1c0.9,0.2,9.7,0.2,11.4,0c2.6-7,5.3-14,7.9-21.1c2.4,0,4.8,0,7.3,0C80.4,103.2,83.8,112.3,87.2,121.5z
		 M76.3,111.3c-1-3.1-1.9-6.1-2.9-9.2c-0.1,0-0.2,0-0.2,0c-1,3-2,6.1-3,9.2C72.3,111.3,74.3,111.3,76.3,111.3z"/>
	<path d="M232.8,121.6c0-9.2,0-18.2,0-27.3c0.3,0,0.6-0.1,1-0.1c3.6,0,7.2,0,10.7,0c1.7,0,3.5,0.2,5.2,0.8c4.1,1.4,6.7,4.1,7.8,8.2
		c0.9,3.3,0.8,6.7-0.1,10c-1.4,4.8-5.2,7.7-9.9,8.2c-1.4,0.2-2.9,0.2-4.3,0.2c-3,0-5.9,0-8.9,0C233.7,121.6,233.3,121.6,232.8,121.6
		z M240,115.4c1.4,0,2.7,0,4,0c1,0,2-0.2,2.9-0.5c1.9-0.6,3.1-1.9,3.6-3.8c0.5-1.9,0.6-3.8,0.2-5.7c-0.5-2.4-2-4.1-4.4-4.7
		c-2-0.5-4.1-0.2-6.2-0.3C240,105.4,240,110.3,240,115.4z"/>
	<path d="M110.9,97.6c-1.4,1.6-2.8,3.3-4.2,5c-0.7-0.5-1.4-1.1-2.1-1.5c-2.2-1.4-4.7-1.7-7.2-1c-2.5,0.8-4.1,2.7-4.8,5.1
		c-0.8,2.9-0.3,5.6,1.6,7.9c1.4,1.7,3.2,2.5,5.3,2.6c1.3,0.1,2.7,0,3.9-0.5c0.5-0.2,1-0.5,1.5-0.7c0-1.1,0-2.1,0-3.3
		c-2,0-3.8,0-5.7,0c-0.1-0.2-0.2-0.3-0.2-0.4c0-1.8,0-3.6,0-5.3c0.9-0.2,10.8-0.3,12.6-0.1c0,4.1,0,8.1,0,12.2
		c-2.6,2.3-5.6,3.9-9,4.3c-4.8,0.6-9.4-0.2-13.1-3.6c-1.7-1.6-2.9-3.5-3.6-5.7c-1.3-4.2-1-8.4,1.3-12.2c2.1-3.4,5.1-5.6,9-6.6
		c1.9-0.5,3.7-0.5,5.7-0.3c3.3,0.3,6.1,1.5,8.6,3.6c0.1,0.1,0.2,0.2,0.3,0.3C110.8,97.4,110.8,97.5,110.9,97.6z"/>
	<path d="M208.2,121.6c-7.4,0-14.7,0-22,0c-0.2-0.9-0.3-24.7-0.1-27.3c0.9-0.2,20-0.3,21.9-0.1c0,1.8,0,3.7,0,5.7
		c-4.9,0-9.8,0-14.7,0c0,1.6,0,3.1,0,4.6c1.1,0.2,2.2,0.1,3.3,0.1c1.1,0,2.2,0,3.4,0c1.1,0,2.2,0,3.2,0c1.1,0,2.2,0,3.5,0
		c0.1,1.9,0,3.7,0,5.6c-1.5,0.1-3,0-4.5,0.1c-1.5,0-2.9,0-4.4,0c-1.5,0-3,0-4.6,0c-0.1,0.9,0,1.7-0.1,2.5c0,0.8,0,1.6,0,2.4
		c1.3,0.2,2.5,0.1,3.8,0.1c1.2,0,2.5,0,3.7,0c1.2,0,2.4,0,3.6,0c1.2,0,2.5,0,3.7,0C208.3,116.3,208.4,119.4,208.2,121.6z"/>
	<path d="M121.5,99.9c0,1.6,0,3.1,0,4.7c4.4,0,8.7,0,13.1,0c0.3,0.9,0.3,4.2,0.1,5.7c-4.3,0-8.7,0-13.1,0c-0.1,0.9-0.1,1.7-0.1,2.5
		c0,0.8,0,1.6,0,2.3c0.1,0.1,0.1,0.1,0.2,0.1c0,0,0.1,0.1,0.1,0.1c4.9,0,9.7,0,14.7,0c0.2,1.1,0.1,2.1,0.1,3.1c0,1,0,2,0,3
		c-1,0.2-20.9,0.2-22.3,0c0-9,0-18.1,0-27.1c0.9-0.2,19.8-0.3,21.8-0.1c0.1,1.8,0,3.7,0,5.7c-2.5,0-4.9,0-7.3,0
		C126.4,99.9,124,99.9,121.5,99.9z"/>
	<path d="M210.8,121.5c0-9.1,0-18.2,0-27.3c2.4,0,4.7,0,7,0c0,0,0,0,0.1,0.1c0,0,0.1,0.1,0.1,0.1c0,6.9,0,13.9,0,20.7
		c0.1,0.1,0.1,0.1,0.2,0.2c0,0,0.1,0.1,0.1,0.1c4.1,0,8.2,0,12.4,0c0.2,1.1,0.1,2.1,0.1,3.1c0,1,0,2,0,3
		C229.7,121.6,212.7,121.7,210.8,121.5z"/>
	<path d="M76.4,85.1c-0.9-1.9-1.8-3.7-2.7-5.4c0.3-1.3,0.6-2.6,0.9-3.9c0.7,0,1.4,0,2.1,0c0.6,0.4,0.9,1.2,0.9,1.9
		c0.1,1.9,0.2,3.9-0.5,5.8C77,84,76.7,84.5,76.4,85.1z"/>
</g>
</svg>
