<?xml version="1.0" encoding="utf-8"?>
<!-- Generator: Adobe Illustrator 26.5.1, SVG Export Plug-In . SVG Version: 6.00 Build 0)  -->
<svg version="1.1" id="Layer_1" xmlns="http://www.w3.org/2000/svg" xmlns:xlink="http://www.w3.org/1999/xlink" x="0px" y="0px"
	 viewBox="0 0 300 150" style="enable-background:new 0 0 300 150;" xml:space="preserve">
<style type="text/css">
	.st0{fill:#9E864F;}
	.st1{fill:#243746;}
</style>
<g>
	<polygon class="st0" points="51.9,52.8 57.8,52.8 57.8,97.2 39.1,97.2 39.1,94.5 51.9,94.5 	"/>
	<polygon class="st0" points="26.4,52.8 20.5,52.8 20.5,97.2 39.1,97.2 39.1,94.5 26.4,94.5 	"/>
	<path class="st0" d="M43.8,89.3l-7.9-36.5h15.9L43.8,89.3z M26.5,52.8h6l9.7,44.4v0.1h-5.9L26.5,52.8z"/>
	<polygon class="st1" points="88.4,58.1 83.9,58.1 83.9,91.9 98.1,91.9 98.1,89.8 88.4,89.8 	"/>
	<polygon class="st1" points="132.7,60.2 132.7,58.1 118.4,58.1 118.4,91.9 132.7,91.9 132.7,89.8 122.9,89.8 122.9,76.6 
		129.3,76.6 129.3,74.4 122.9,74.4 122.9,60.2 	"/>
	<path class="st1" d="M167.1,81.7l-2.2-10.3l2.9-13.3h4.5L167.1,81.7z M153,58.1h4.5l0.4,1.7l4.7,21.8l0,0l2.2,10.3h-4.5L153,58.1z"
		/>
	<polygon class="st1" points="206.8,60.2 206.8,58.1 192.5,58.1 192.5,91.9 206.8,91.9 206.8,89.8 197,89.8 197,76.6 203.4,76.6 
		203.4,74.4 197,74.4 197,60.2 	"/>
	<polygon class="st1" points="231.6,58.1 227.1,58.1 227.1,91.9 241.3,91.9 241.3,89.8 231.6,89.8 	"/>
	<polygon class="st1" points="266.1,58.1 261.6,58.1 261.6,91.9 274.2,91.9 274.2,89.8 266.1,89.8 	"/>
	<polygon class="st1" points="274.1,91.9 278.5,91.9 278.5,58.1 266,58.1 266,60.2 274.1,60.2 	"/>
</g>
</svg>
