<?xml version="1.0" encoding="utf-8"?>
<!-- Generator: Adobe Illustrator 26.5.1, SVG Export Plug-In . SVG Version: 6.00 Build 0)  -->
<svg version="1.0" id="Layer_1" xmlns="http://www.w3.org/2000/svg" xmlns:xlink="http://www.w3.org/1999/xlink" x="0px" y="0px"
	 viewBox="0 0 300 150" style="enable-background:new 0 0 300 150;" xml:space="preserve">
<style type="text/css">
	.st0{fill:none;}
	.st1{fill:#FBAC18;}
</style>
<g>
	<g>
		<polygon class="st0" points="194.9,98.2 199.5,98.2 204.2,98.2 199.7,84.6 199.5,84.6 199.4,84.6 		"/>
		<path class="st0" d="M156.3,49.7h4.6h0.5c1.7,0,2.8-0.2,3.3-0.6c0.5-0.5,0.8-1.2,0.8-2.4v-1.5c0-1-0.3-1.7-0.7-2.1
			c-0.5-0.3-1.7-0.6-3.5-0.6h-0.4h-4.6V49.7z"/>
		<path class="st0" d="M215,51.1h5.5h0.9c1.7,0,2.9-0.3,3.5-0.7c0.6-0.5,1-1.4,1-2.7v-2.1c0-1.2-0.4-1.9-1-2.4
			c-0.7-0.4-1.8-0.6-3.5-0.6h-0.9H215V51.1z"/>
		<path class="st0" d="M230.9,93.6h6.4h1.1c2,0,3.4-0.3,4.2-0.8c0.8-0.6,1.1-1.6,1.1-3.2v-2.5c0-1.4-0.4-2.3-1.2-2.8
			c-0.8-0.5-2.2-0.7-4.1-0.7h-1.1h-6.4V93.6z"/>
		<path class="st0" d="M156.3,62.7h4.6h0.7c1.8,0,3-0.1,3.8-0.6c0.8-0.4,1.2-1.1,1.2-2v-2.5c0-1.1-0.3-1.9-0.9-2.3
			c-0.6-0.5-1.6-0.8-3.1-0.8h-1.7h-4.6V62.7z"/>
		<path class="st0" d="M268.1,83.6v23.8h6.4h1.2c2.7,0,4.6-0.3,5.7-0.7c1.3-0.5,1.9-1.6,1.9-3.5V88.2c0-1.8-0.7-3-2.1-3.7
			c-1.2-0.6-3-0.9-5.5-1h-0.9H268.1z"/>
		<polygon class="st1" points="114.9,37.3 107.5,37.3 107.5,67.9 130,67.9 130,62.7 114.9,62.7 		"/>
		<polygon class="st1" points="215,51.1 215,42.6 220.5,42.6 220.5,37.3 207.7,37.3 207.7,67.9 215,67.9 215,55.9 218.5,55.9 
			220.5,58.9 220.5,51.1 		"/>
		<polygon class="st1" points="186.3,54.8 200.7,54.8 200.7,49.6 186.3,49.6 186.3,42.6 202.2,42.6 202.2,37.3 178.9,37.3 
			178.9,67.9 202.7,67.9 202.7,62.7 186.3,62.7 		"/>
		<polygon class="st1" points="156.3,62.7 156.3,54.5 160.8,54.5 160.8,49.7 156.3,49.7 156.3,42.6 160.8,42.6 160.8,37.3 
			148.9,37.3 148.9,67.9 160.8,67.9 160.8,62.7 		"/>
		<rect x="134.9" y="37.3" class="st1" width="7.4" height="30.6"/>
		<path class="st1" d="M172.3,53.3c-1-0.8-2.1-1.4-3.2-1.5v-0.2c0.9-0.3,1.6-0.8,2.3-1.5c0.7-0.8,1-1.6,1-2.4v-3.8
			c0-2.4-0.8-4.1-2.3-5.1c-1.5-1-4.5-1.5-8.8-1.5h-0.5v5.3h0.4c1.9,0,3.1,0.2,3.5,0.6c0.4,0.4,0.7,1.1,0.7,2.1v1.5
			c0,1.2-0.3,1.9-0.8,2.4c-0.5,0.4-1.6,0.6-3.3,0.6h-0.5v4.8h1.7c1.5,0,2.5,0.3,3.1,0.8c0.6,0.4,0.9,1.2,0.9,2.3v2.5
			c0,0.9-0.4,1.6-1.2,2c-0.8,0.4-2,0.6-3.8,0.6h-0.7v5.3h0.8c4,0,7.1-0.5,9.1-1.5c2-1,3-2.8,3-5.3v-4.7
			C173.8,55.3,173.3,54.2,172.3,53.3z"/>
		<path class="st1" d="M231.1,53.5c1.4-1,2-2.5,2-4.4v-5.3c0-2.4-0.9-4.1-2.8-5c-1.9-1-4.8-1.5-8.8-1.5h-1v5.3h0.9
			c1.7,0,2.8,0.2,3.5,0.6c0.7,0.4,1,1.2,1,2.4v2.1c0,1.3-0.4,2.2-1,2.7c-0.6,0.4-1.8,0.7-3.5,0.7h-0.9v7.9l6,9h8.5l-8.9-12.6
			C228.1,55.1,229.8,54.4,231.1,53.5z"/>
		<polygon class="st1" points="230.9,93.6 230.9,83.6 237.3,83.6 237.3,77.4 222.2,77.4 222.2,113.5 230.9,113.5 230.9,99.3 
			234.9,99.3 237.3,102.9 237.3,93.6 		"/>
		<path class="st1" d="M249.8,96.5c1.5-1.2,2.4-2.9,2.4-5.1V85c0-2.9-1.1-4.8-3.3-6c-2.2-1.1-5.7-1.7-10.4-1.7h-1.2v6.2h1.1
			c1.9,0,3.3,0.3,4.1,0.7c0.8,0.5,1.2,1.4,1.2,2.8v2.5c0,1.5-0.4,2.6-1.1,3.2c-0.7,0.5-2.1,0.8-4.2,0.8h-1.1v9.3l7.2,10.6h10
			l-10.5-14.9C246.3,98.3,248.3,97.6,249.8,96.5z"/>
		<path class="st1" d="M288.1,79.6c-2.5-1.5-6.6-2.2-12.3-2.3v6.2c2.4,0.1,4.2,0.4,5.5,1c1.5,0.6,2.1,1.9,2.1,3.7v14.9
			c0,1.9-0.6,3-1.9,3.5c-1.1,0.5-3,0.7-5.7,0.7v6.2c6-0.1,10.1-0.7,12.5-2.1c2.5-1.5,3.8-4.2,3.8-8.3V88.4
			C292.1,84,290.8,81.2,288.1,79.6z"/>
		<polygon class="st1" points="199.5,77.4 199.5,84.6 199.7,84.6 204.2,98.2 199.5,98.2 199.5,104.1 206.1,104.1 209.4,113.5 
			218.2,113.5 205.1,77.4 		"/>
		<polygon class="st1" points="274.5,107.3 268.1,107.3 268.1,83.6 274.8,83.6 275.7,83.6 275.7,77.4 274.8,77.4 259.5,77.4 
			259.5,113.5 274.9,113.5 275.7,113.5 275.7,107.3 		"/>
		<path class="st1" d="M168.6,103.6c0,1.7-0.6,2.8-1.5,3.4c-1.1,0.6-2.9,0.9-5.4,0.9c-2.5,0-4.4-0.3-5.5-0.9
			c-1.1-0.6-1.6-1.7-1.6-3.4V77.4h-8.7v26.3c0,7,5.2,10.5,15.7,10.5c10.5,0,15.7-3.5,15.7-10.5V77.4h-8.6V103.6z"/>
		<polygon class="st1" points="194.9,98.2 199.4,84.6 199.5,84.6 199.5,77.4 194.5,77.4 181.1,113.5 189.7,113.5 192.9,104.1 
			199.5,104.1 199.5,98.2 		"/>
		<path class="st1" d="M124.7,98.7h5.9v8.4c-2.1,0.6-4,0.8-5.8,0.8c-3.4,0-5.8-0.3-7.6-1.1c-1.8-0.7-2.6-2-2.6-3.8V88.5
			c0-3.7,3.1-5.5,9.4-5.5c5.4,0,10.3,0.5,14.7,1.6V78c-4.6-0.8-9.5-1.2-14.7-1.2c-1.7,0-3.4,0.1-4.9,0.2c-1.6,0.2-3.1,0.6-4.8,1.1
			c-1.6,0.6-3.1,1.2-4.2,2c-1.2,0.8-2.2,2-3,3.4c-0.7,1.5-1.1,3.1-1.1,5v15.1c0,1.7,0.3,3.2,1,4.4c0.7,1.3,1.5,2.3,2.7,3
			c1.1,0.7,2.5,1.4,4.1,1.8c1.6,0.5,3.2,0.8,4.8,1c1.6,0.2,3.4,0.2,5.5,0.2c2.4,0,5-0.2,7.9-0.6c2.9-0.5,5.2-1,7.1-1.7V93h-14.2
			V98.7z"/>
		<polygon class="st1" points="279.2,49.3 272.8,37.3 264.4,37.3 275.5,55.7 275.5,67.9 282.9,67.9 282.9,55.5 294,37.3 285.6,37.3 
					"/>
		<polygon class="st1" points="236.9,42.6 246.3,42.6 246.3,67.9 253.7,67.9 253.7,42.6 263.1,42.6 263.1,37.3 236.9,37.3 		"/>
	</g>
	<g>
		<path class="st1" d="M91,90.5c-2.4-7.6-4.6-10.8-5.9-13.1c3.1,20-13.4,35.6-13.6,35.8c2.1-9.3,2.1-15.8,0.2-22.2
			c0,0,1.1,19.3-30.2,28.5c5.1-4.2,9.9-7.6,11.9-12.5c0,0-7.3,3.7-15.3,3.8c-0.5,0-1,0-1.5,0c-3.9-2.6-24.6-17.5-24.6-45.9
			c0-5.6,0.8-11.8,2.8-18.6c0,0,17.8-16.7,58.4-7.7c0.2,0.1,0.4,0.1,0.6,0.1c1.9,0.4,4.9,1.2,6.8,1.7c0.1,0,0.1,0,0.2,0.1
			c0,0,0.1,1,0.2,2.8c0.2,2.9,0.2,7.8-0.7,13.8c-0.3-0.3-0.6-0.6-0.9-0.8c-3.9-3.5-8.8-5.9-14.5-6.8c-11.5-1.8-21.4,1.8-30,9.6
			c-1.2,1.1-2.6,2.1-4,2.7C23,65.2,21,71.7,25.4,78.7c2.1-1.1,3.9-2.7,6.1-3.2c7.9-1.8,14.8,2.2,17.6,10.1c0.9,2.5,1.3,5.1,2,7.8
			c2.7-4.1,2.8-5.6,1.6-16.2c1.5,2,3.1,4.1,4.9,6.4c-0.1-6.3-3.6-10-8.2-12.2c-8.5-4-16.3-1.1-23.6,3.8c-0.4-4.2,1.7-7.8,5.4-9
			c0.8-0.3,2.5,0.2,2.6-0.1c1.4-3.4,3.2-1,4.8-0.5c2.1,0.8,4.1,1.7,5.1-1.3c4.4,1.4,5.5,0.7,6.9-4.5h7.1c-7-2.1-13.9-3.5-19.3,4.1
			c-1.1-1.1-1.9-1.9-2.7-2.8c11-10.1,29.3-8.6,39.2,0.3c-13.8-3.1-23.2,1.8-25.6,7.1c10.8,5.4,14,14.6,7.8,22.6
			c-0.5-0.6-1-1.2-1.6-2c-1.3,6.9-2.4,8.8-4.6,8c-1.6,7.5-10.5,12.6-10.8,12.8c4.3-1.4,8.5-3.1,12.4-5.4c0,0,0,0,0,0
			c2.4-1.4,4.7-2.9,6.9-4.6c2.9-2.2,5.7-4.7,8.3-7.5c0.6-0.6,1.1-1.3,1.7-1.9c10.6-12.1,13.5-21.6,10.9-33.5
			C80.7,57.2,96.4,67.1,91,90.5z"/>
	</g>
</g>
</svg>
