<?xml version="1.0" encoding="utf-8"?>
<!-- Generator: Adobe Illustrator 26.5.1, SVG Export Plug-In . SVG Version: 6.00 Build 0)  -->
<svg version="1.1" id="Layer_1" xmlns="http://www.w3.org/2000/svg" xmlns:xlink="http://www.w3.org/1999/xlink" x="0px" y="0px"
	 viewBox="0 0 223 74" style="enable-background:new 0 0 223 74;" xml:space="preserve">
<style type="text/css">
	.st0{fill:#00B2E3;}
</style>
<g>
	<g>
		<polygon class="st0" points="74.1,12.2 67.6,12.2 50.1,61 57.4,61 70.9,22.2 84.3,61 91.7,61 		"/>
		<polygon class="st0" points="196.4,12.2 189.9,12.2 172.4,61 179.7,61 193.1,22.2 206.6,61 213.9,61 		"/>
		<g>
			<path class="st0" d="M9.8,31.7h6.6V37H28c5.9,0,9.1-4.3,9.1-9.1c0-4.8-3.1-9.1-9.1-9.1H9.8v-6.6H28c10,0,16,7,16,15.8
				c0,8.6-6.1,15.7-16,15.7H16.4V61H9.8V31.7z"/>
			<polygon points="140.2,21.7 135.6,32.5 143.6,51 159.2,12.2 166.2,12.2 146.8,61 140.3,61 132,41.2 123.7,61 117.2,61 97.8,12.2 
				104.9,12.2 120.4,51 128.4,32.6 123.9,21.7 131,21.7 132,24.1 133,21.7 			"/>
		</g>
	</g>
</g>
</svg>
