<?xml version="1.0" encoding="utf-8"?>
<!-- Generator: Adobe Illustrator 26.5.1, SVG Export Plug-In . SVG Version: 6.00 Build 0)  -->
<svg version="1.1" xmlns="http://www.w3.org/2000/svg" xmlns:xlink="http://www.w3.org/1999/xlink" x="0px" y="0px"
	 viewBox="0 0 948.9 229.8" style="enable-background:new 0 0 948.9 229.8;" xml:space="preserve">
<style type="text/css">
	.st0{fill-rule:evenodd;clip-rule:evenodd;fill:#FF5100;}
</style>
<g id="Layer_1">
	<path class="st0" d="M257.1,80.7c19.3,0,35,15.7,35,35c0,19.3-15.7,35-35,35c-19.3,0-35-15.7-35-35
		C222.1,96.4,237.8,80.7,257.1,80.7z M257.1,45.7c38.6,0,70,31.4,70,70c0,38.6-31.4,70-70,70c-38.7,0-70-31.4-70-70
		C187.1,77.1,218.4,45.7,257.1,45.7z"/>
</g>
<g id="Layer_2">
	<path class="st0" d="M530.2,80.7c19.3,0,35,15.7,35,35c0,19.3-15.7,35-35,35c-19.3,0-35-15.7-35-35
		C495.2,96.4,510.9,80.7,530.2,80.7z M530.2,45.7c38.7,0,70,31.4,70,70c0,38.6-31.4,70-70,70c-38.6,0-70-31.4-70-70
		C460.2,77.1,491.6,45.7,530.2,45.7z"/>
</g>
<g id="Layer_3">
	<path class="st0" d="M853.4,80.7c19.3,0,35,15.7,35,35c0,19.3-15.7,35-35,35s-35-15.7-35-35C818.4,96.4,834.1,80.7,853.4,80.7z
		 M853.4,45.7c38.6,0,70,31.4,70,70c0,38.6-31.4,70-70,70c-38.6,0-70-31.4-70-70C783.4,77.1,814.8,45.7,853.4,45.7z"/>
</g>
<g id="Layer_4">
	<path class="st0" d="M691.8,80.7c19.3,0,35,15.7,35,35c0,19.3-15.7,35-35,35c-19.3,0-35-15.7-35-35
		C656.8,96.4,672.5,80.7,691.8,80.7z M761.9,14.1v101.6c0,38.6-31.4,70-70,70c-38.6,0-70-31.4-70-70c0-38.7,31.4-70,70-70
		c12.8,0,24.8,3.4,35.1,9.4v-41H761.9z"/>
</g>
<g id="Layer_5">
	<path class="st0" d="M95.5,80.7c19.3,0,35,15.7,35,35c0,19.3-15.7,35-35,35c-19.3,0-35-15.7-35-35C60.5,96.4,76.2,80.7,95.5,80.7z
		 M25.4,116.6c0-0.3,0-0.5,0-0.8c0-38.7,31.4-70,70-70c38.6,0,70,31.4,70,70c0,38.6-31.4,70-70,70c-12.8,0-24.8-3.4-35.1-9.4v41.8
		h-35V116.6z"/>
</g>
<g id="Layer_6">
	<path class="st0" d="M364.2,88.5V45.7h35v4.2C383.1,57.7,370.4,71.6,364.2,88.5z M364.2,115.7c0-38.6,31.4-70,70-70v35
		c-19.3,0-35,15.7-35,35v70h-35V115.7z"/>
</g>
</svg>
