<?xml version="1.0" encoding="utf-8"?>
<!-- Generator: Adobe Illustrator 26.5.1, SVG Export Plug-In . SVG Version: 6.00 Build 0)  -->
<svg version="1.1" id="Layer_1" xmlns="http://www.w3.org/2000/svg" xmlns:xlink="http://www.w3.org/1999/xlink" x="0px" y="0px"
	 viewBox="0 0 300 150" style="enable-background:new 0 0 300 150;" xml:space="preserve">
<style type="text/css">
	.st0{fill:#00C1F2;}
	.st1{fill:#0E273B;}
</style>
<g>
	<g>
		<g>
			<g>
				<g>
					<path class="st0" d="M48.2,75.4c0-4.2-1.7-8-4.4-10.7l0,0l0,0c-2.7-2.7-6.5-4.4-10.7-4.4h-0.1v-7.8c-0.7,0-1.4,0-2.1,0.1
						c-5,0.5-9.6,2.5-13.1,5.7l-0.1,0.1c-4.3,3.8-7.1,9.2-7.6,15.2C10,74.1,10,74.7,10,75.4v0l0,0.1c0,0.6,0,1.3,0.1,1.9
						c0.5,5.6,2.9,10.6,6.6,14.3l0.1,0.1c0.3,0.3,0.6,0.5,0.9,0.8l0,0c0,0,0,0,0,0l0,0l0.1,0V75.4c0-4.2,1.7-8,4.5-10.8
						c2.7-2.7,6.5-4.5,10.7-4.5v7.6H33c2.1,0,4,0.9,5.4,2.2l0.1,0.1c1.4,1.4,2.2,3.3,2.2,5.4v0l0,0.1c0,4.2-3.4,7.6-7.6,7.6h-0.1
						v7.6c-3.7,0-7.1-1.3-9.7-3.5l-5.5,5.5c3.7,3.2,8.4,5.3,13.5,5.7c0.6,0,1.1,0.1,1.7,0.1v-7.8H33c4.2,0,8-1.7,10.7-4.5
						C46.5,83.4,48.2,79.6,48.2,75.4L48.2,75.4L48.2,75.4z"/>
					<path class="st0" d="M25.3,75.4L25.3,75.4L25.3,75.4c0,2.2,0.9,4.1,2.2,5.4l0.1,0.1c1.4,1.4,3.3,2.2,5.3,2.2V67.7
						C28.7,67.7,25.3,71.1,25.3,75.4"/>
				</g>
			</g>
		</g>
	</g>
	<g>
		<path class="st1" d="M74.4,66.4c-1.3-0.6-2.8-0.9-4.6-0.9h-8.6l0,19.7l5.5-5.5h3.1c1.8,0,3.3-0.3,4.6-0.9c1.3-0.6,2.3-1.4,3-2.5
			c0.7-1.1,1-2.3,1-3.7c0-1.5-0.3-2.7-1-3.8C76.7,67.8,75.7,67,74.4,66.4 M72.8,75.2c-0.7,0.6-1.8,0.9-3.1,0.9h-3.7v-6.8h3.7
			c1.4,0,2.4,0.3,3.1,0.9c0.7,0.6,1.1,1.4,1.1,2.5C73.9,73.8,73.5,74.6,72.8,75.2"/>
		<path class="st1" d="M99.4,66.8c-1.6-0.9-3.5-1.3-5.6-1.3c-2.1,0-3.9,0.4-5.6,1.3c-1.7,0.9-2.9,2-3.9,3.5c-0.9,1.5-1.4,3.2-1.4,5
			c0,1.9,0.5,3.5,1.4,5c0.9,1.5,2.2,2.7,3.9,3.5c1.7,0.9,3.5,1.3,5.6,1.3c2.1,0,3.9-0.4,5.6-1.3c1.6-0.9,2.9-2,3.9-3.5
			c0.9-1.5,1.4-3.2,1.4-5c0-1.9-0.5-3.6-1.4-5C102.4,68.8,101.1,67.7,99.4,66.8 M99.3,78.6c-0.5,0.9-1.3,1.7-2.2,2.2
			c-1,0.5-2,0.8-3.2,0.8c-1.2,0-2.2-0.3-3.2-0.8c-1-0.5-1.7-1.3-2.2-2.2c-0.5-0.9-0.8-2-0.8-3.2c0-1.2,0.3-2.3,0.8-3.2
			c0.5-0.9,1.3-1.7,2.2-2.2c1-0.5,2-0.8,3.2-0.8c1.2,0,2.2,0.3,3.2,0.8c1,0.5,1.7,1.2,2.2,2.2c0.5,0.9,0.8,2,0.8,3.2
			C100.1,76.6,99.9,77.7,99.3,78.6"/>
		<polygon class="st1" points="141,85.2 156.4,85.2 156.4,81.6 145.6,81.6 145.6,77.9 154.6,77.9 154.6,74.3 145.6,74.3 145.6,69.3 
			156.4,69.3 156.4,65.5 141,65.5 		"/>
		<path class="st1" d="M176.2,76.5c0.7-1.1,1.1-2.3,1.1-3.8c0-1.5-0.3-2.7-1-3.8c-0.7-1.1-1.7-1.9-3-2.5c-1.3-0.6-2.8-0.9-4.6-0.9
			H160v19.7h4.6v-5.5h4h0.2l3.8,5.5h4.9l-4.5-6.3C174.4,78.3,175.4,77.5,176.2,76.5 M171.5,75.2c-0.7,0.6-1.8,0.9-3.1,0.9h-3.7v-6.8
			h3.7c1.4,0,2.4,0.3,3.1,0.9c0.7,0.6,1.1,1.4,1.1,2.5C172.6,73.8,172.2,74.6,171.5,75.2"/>
		<polygon class="st1" points="211.1,65.5 206.5,65.5 206.5,85.2 221.1,85.2 221.1,81.6 211.1,81.6 		"/>
		<path class="st1" d="M256.2,70.1c1-0.5,2.1-0.8,3.4-0.8c2,0,3.7,0.7,5.1,2.2l2.8-2.8c-0.9-0.8-2-1.7-3.4-2.3
			c-1.4-0.6-3-0.8-4.7-0.8c-2.1,0-3.9,0.4-5.6,1.3c-1.7,0.8-3,2-3.9,3.5c-0.9,1.5-1.4,3.2-1.4,5.1c0,1.9,0.5,3.6,1.4,5.1
			c0.9,1.5,2.2,2.7,3.9,3.5c1.6,0.8,3.5,1.3,5.6,1.3c1.4,0,2.9-0.2,4.3-0.6c1.4-0.4,2.9-1.1,4-1.9v-8.5h-4.6v6.5
			c-1.1,0.5-2.1,0.8-3.4,0.8c-1.2,0-2.4-0.3-3.3-0.8c-1-0.5-1.7-1.2-2.3-2.2c-0.5-0.9-0.9-2.1-0.9-3.2c0-1.2,0.3-2.3,0.9-3.2
			C254.4,71.3,255.2,70.6,256.2,70.1"/>
		<polygon class="st1" points="286.5,65.5 281.1,74.3 275.7,65.5 271.1,65.5 278.8,78 278.8,85.2 283.3,85.2 283.3,78 291,65.5 		
			"/>
		<path class="st1" d="M197.6,66.8c-1.6-0.9-3.5-1.3-5.6-1.3c-2.1,0-3.9,0.4-5.6,1.3c-1.7,0.9-2.9,2-3.9,3.5c-0.9,1.5-1.4,3.2-1.4,5
			c0,1.9,0.5,3.5,1.4,5c0.9,1.5,2.2,2.7,3.9,3.5c1.7,0.9,3.5,1.3,5.6,1.3c2.1,0,3.9-0.4,5.6-1.3c1.6-0.9,2.9-2,3.9-3.5
			c0.9-1.5,1.4-3.2,1.4-5c0-1.9-0.5-3.6-1.4-5C200.6,68.8,199.3,67.7,197.6,66.8 M197.5,78.6c-0.5,0.9-1.3,1.7-2.2,2.2
			c-1,0.5-2,0.8-3.2,0.8c-1.2,0-2.2-0.3-3.2-0.8c-1-0.5-1.7-1.3-2.2-2.2c-0.5-0.9-0.8-2-0.8-3.2c0-1.2,0.3-2.3,0.8-3.2
			c0.5-0.9,1.3-1.7,2.2-2.2c1-0.5,2-0.8,3.2-0.8c1.2,0,2.2,0.3,3.2,0.8c1,0.5,1.7,1.2,2.2,2.2c0.5,0.9,0.8,2,0.8,3.2
			C198.3,76.6,198,77.7,197.5,78.6"/>
		<path class="st1" d="M239.5,66.8c-1.6-0.9-3.5-1.3-5.6-1.3c-2.1,0-3.9,0.4-5.6,1.3c-1.7,0.9-2.9,2-3.9,3.5c-0.9,1.5-1.4,3.2-1.4,5
			c0,1.9,0.5,3.5,1.4,5c0.9,1.5,2.2,2.7,3.9,3.5c1.7,0.9,3.5,1.3,5.6,1.3c2.1,0,3.9-0.4,5.6-1.3c1.6-0.9,2.9-2,3.9-3.5
			c0.9-1.5,1.4-3.2,1.4-5c0-1.9-0.5-3.6-1.4-5C242.4,68.8,241.1,67.7,239.5,66.8 M239.3,78.6c-0.5,0.9-1.3,1.7-2.2,2.2
			c-1,0.5-2,0.8-3.2,0.8c-1.2,0-2.2-0.3-3.2-0.8c-1-0.5-1.7-1.3-2.2-2.2c-0.5-0.9-0.8-2-0.8-3.2c0-1.2,0.3-2.3,0.8-3.2
			c0.5-0.9,1.3-1.7,2.2-2.2c1-0.5,2-0.8,3.2-0.8c1.2,0,2.2,0.3,3.2,0.8c1,0.5,1.7,1.2,2.2,2.2c0.5,0.9,0.8,2,0.8,3.2
			C240.2,76.6,239.9,77.7,239.3,78.6"/>
		<polygon class="st1" points="128.2,79.8 123.7,65.5 121.4,65.5 119.1,65.5 114.5,79.8 109.9,65.5 105.3,65.5 112.2,85.2 
			116.8,85.2 121.4,71.8 126,85.2 130.5,85.2 137.4,65.5 132.8,65.5 		"/>
	</g>
</g>
</svg>
