<?xml version="1.0" encoding="utf-8"?>
<!-- Generator: Adobe Illustrator 26.5.1, SVG Export Plug-In . SVG Version: 6.00 Build 0)  -->
<svg version="1.0" id="Layer_1" xmlns="http://www.w3.org/2000/svg" xmlns:xlink="http://www.w3.org/1999/xlink" x="0px" y="0px"
	 viewBox="0 0 300 150" style="enable-background:new 0 0 300 150;" xml:space="preserve">
<style type="text/css">
	.st0{fill:#17BFCE;}
	.st1{fill:#31C6C9;}
	.st2{fill:#3DC9C3;}
	.st3{fill:#8FDFAA;}
	.st4{fill:#5ED2B9;}
	.st5{fill:#51CFBF;}
	.st6{fill:#B9EA9C;}
	.st7{fill:#CEEF9C;}
	.st8{fill:#4BCDC1;}
	.st9{fill:#ACE6A0;}
	.st10{fill:#21C2CC;}
	.st11{fill:#6BD5B5;}
	.st12{fill:#7FDAAE;}
	.st13{fill:#75D8B1;}
	.st14{fill:#A0E3A4;}
</style>
<g>
	<path class="st0" d="M12.5,56.3c1.2,0.1,2.5,0.1,3.7,0.2c0,12.2,0,24.5,0,36.7c-1.2,0.1-2.5,0.1-3.7,0.2
		C12.5,81.1,12.5,68.7,12.5,56.3z"/>
	<path class="st1" d="M265.7,77.3c-0.6,0.3-0.3,0.9-0.3,1.3c0,4.5,0,9,0,13.5c0,1-0.3,1.4-1.3,1.3c-1.7-0.1-3.4-0.1-5.1,0
		c-0.8,0-1.2-0.2-1.2-1.1c0-11.6,0-23.2,0-34.9c0-0.5-0.1-1.1,0.7-1c2.6,0.1,5.3-0.2,7.9,0.1c0,2.4,0,4.9,0,7.3
		c-0.8-0.1-1.1,0.3-1.1,1.2c0,3.5,0,7.1,0,10.6c0,0.4-0.1,0.8,0.3,1.1C265.7,76.9,265.7,77.1,265.7,77.3z"/>
	<path class="st2" d="M29.2,57.3c4.7,1.3,8.8,6.5,9.2,11.5c0.4,5.2-1.4,9.4-5.5,12.5c-0.6,0.5-0.7,0.7-0.2,1.3
		c2.4,3.2,4.7,6.4,7,9.6c0.2,0.3,0.6,0.5,0.4,0.8c-0.2,0.4-0.6,0.2-0.9,0.2c-2.1,0-4.2,0-6.3,0c-0.6,0-1-0.2-1.3-0.7
		c-0.6-1-1.4-2-2-2.9c0.1-0.5,0.3-1,0.3-1.6c0-4,0-8,0-12c0-0.6-0.1-1.1-0.4-1.5c2.4-3.6,2.2-6.3-0.6-9.4c0.2-0.4,0.3-0.8,0.3-1.3
		c0-1.8,0-3.6,0-5.4C28.9,58.1,28.8,57.6,29.2,57.3z"/>
	<path class="st3" d="M163.9,58.5c5.5,3,8.6,7.7,9.4,13.9c0.9,6.3-1.1,11.7-5.6,16.1c-3.4,3.3-7.4,5.1-12.2,5.2
		c0.1-1.7-0.3-3.4,0.2-5c1.6-0.2,3.2-0.6,4.7-1.3c5.3-2.4,8.7-8.7,7.8-14.4c-0.6-3.4-2.2-6.1-4.6-8.4c0-0.4,0-0.9,0-1.3
		C163.8,61.6,163.4,60,163.9,58.5z"/>
	<path class="st4" d="M208.1,77.3c0.3,0.4,0.3,0.9,0.9,1.3c0.4-1.2,0.9-2.4,1.3-3.6c2-5.8,4.1-11.6,6.1-17.5
		c0.3-0.9,0.7-1.3,1.8-1.2c1.2,0.1,2.4,0.1,3.6,0.1c1.1,0,1.1,0.4,0.8,1.3c-1.2,3.2-2.5,6.4-3.5,9.7c-2.7,8.4-5.8,16.6-8.7,24.9
		c-0.1,0.4-0.2,0.9-0.8,1c-0.7,0.1-0.8-0.5-1-0.9c-0.5-1.2-1-2.4-1.5-3.6c0.5-0.6,0.5-1.3,0.5-2c0-2.8,0-5.6,0-8.4
		C207.6,78,207.4,77.5,208.1,77.3z"/>
	<path class="st5" d="M232.9,93.2c-1.6,0.3-3.2,0.1-4.8,0.1c-0.5,0-0.7-0.2-0.7-0.6c0-0.2,0-0.5,0-0.7c0-11.4,0-22.8,0-34.2
		c0-1.2,0.3-1.5,1.5-1.4c1.3,0.1,2.7-0.1,4.1,0.1C232.9,68.7,232.9,81,232.9,93.2z"/>
	<path class="st0" d="M276.1,57.9c8.9,4.1,10.3,16.8,2.5,23c-1,0.8-1,1.3-0.3,2.3c2.2,2.9,4.3,5.9,6.4,8.8c0.3,0.4,0.5,0.7,0.8,1.2
		c-2.8,0-5.4,0.1-8-0.1c-0.9-0.1-1.2-1.2-1.7-2c0.1-0.6,0.3-1.2,0.3-1.8c0-4.8,0-9.7,0-14.5c0-0.6,0-1.2-0.5-1.5c1-2.1,1-4.1,0-6.2
		c0.5-0.4,0.5-1,0.5-1.6C276.1,63.1,276.1,60.5,276.1,57.9z"/>
	<path class="st6" d="M114.1,56.4c4.3-0.2,8.6-0.2,12.4,2.4c3.9,2.8,5.9,6.5,6,11.3c0.2,6.1-4.2,11.8-10,13.5
		c-2.1,0.6-4.3,0.4-6.4,0.5c-0.5,0-0.7-0.3-1-0.7c-0.4-0.6-0.8-1.2-1.2-1.8c0.3-0.5,0.2-1.1,0.2-1.7c2.1,0,4.2,0.1,6.3-0.2
		c4.5-0.7,8.1-4.9,7.9-10c-0.2-4.5-4.3-8.8-8.9-8.9c-1.8,0-3.6-0.1-5.3-0.1C114.1,59.2,114.1,57.8,114.1,56.4z"/>
	<path class="st7" d="M114.1,79.9c0,0.6,0.1,1.1-0.2,1.7c-0.4-0.2-0.4-0.7-0.9-0.8c-0.2,0.3-0.1,0.7-0.1,1c0,3.5,0,6.9,0,10.4
		c0,0.9-0.2,1.3-1.2,1.3c-3.2,0-3.2,0.1-3.2-3.1c0-10.8,0-21.6,0-32.4c0-1.2,0.3-1.7,1.5-1.6c1.4,0.1,2.8,0.1,4.2,0.1
		c0,1.4,0,2.8,0,4.2c-1.1,0-1.3,0.5-1.3,1.5c0.1,5.5,0.1,10.9,0,16.4C112.7,79.6,113.1,79.9,114.1,79.9z"/>
	<path class="st8" d="M232.9,93.2c0-12.3,0-24.5,0-36.8c3-0.2,6-0.2,8.9,0c0,2.1,0,4.3,0,6.4c-2.3,0-4.6,0.1-6.9,0
		c-0.7,0-1.1,0.1-1,0.9c0,2.9,0,5.8,0,8.6c0,0.7,0.2,0.9,0.9,0.9c1.4,0,2.7,0,4.1,0c0,2.1,0,4.3,0,6.4c-1.3,0.3-2.6,0.1-3.9,0.1
		c-0.8,0-1.1,0.3-1,1.1c0,1.5,0.1,3.1,0,4.6c0,0.9,0.2,1.2,1.2,1.2c1.9-0.1,3.9,0,5.8,0c0,2.1,0,4.3,0,6.4
		C238.2,93.4,235.6,93.4,232.9,93.2z"/>
	<path class="st9" d="M145.8,91.5c-3.9-1.8-6.5-4.8-8.3-8.6c-4.1-8.5-1.1-18.8,6.8-23.9c0.4-0.3,0.9-0.5,1.3-0.7c0,1.5,0,3.1,0,4.6
		c0,0.4-0.2,0.9,0.5,1.1c-0.1,0.1-0.1,0.2-0.2,0.3c-4.5,3.7-6.2,9.7-4.3,15.1c0.9,2.5,2.5,4.6,4.5,6.4
		C145.6,87.6,146,89.6,145.8,91.5z"/>
	<path class="st10" d="M16.3,93.2c0-12.2,0-24.5,0-36.7c2.1-0.2,4.3-0.2,6.4,0c0,2.4,0,4.9,0,7.3c-0.5,0-0.9,0.1-1.4,0
		c-1.2-0.2-1.4,0.3-1.4,1.4c0.1,3.8,0,7.5,0,11.3c0,0.2,0,0.3,0,0.5c0,5,0,10.1,0,15.1c0,0.9-0.2,1.3-1.2,1.2
		C18,93.2,17.1,93.5,16.3,93.2z"/>
	<path class="st11" d="M208.1,77.3c-0.7,0.1-0.5,0.7-0.5,1.1c0,2.8,0,5.6,0,8.4c0,0.7,0,1.4-0.5,2c-1.7-3.9-3.5-7.9-5.2-11.8
		c-0.9-2-1.8-4-2.6-6c-0.3-0.8-0.6-0.7-0.9,0c-0.8-0.4-0.7-1.1-0.7-1.8c0-2.8,0-5.6,0-8.4c0-0.4,0.2-0.9-0.3-1.3
		c0.4-1.1,0.9-2.2,1.3-3.3c0.4,0,0.4,0.3,0.5,0.5c2.9,6.8,5.9,13.5,8.8,20.3C208.1,77.1,208.1,77.2,208.1,77.3z"/>
	<path class="st12" d="M188.3,93.2c-0.5,0.3-0.6-0.1-0.7-0.4c-2.6-7.5-5.2-14.9-7.8-22.4c0.6-0.5,0.5-1.1,0.5-1.7
		c0-4.1,0-8.1,0-12.2c0.7-0.1,0.8,0.5,0.9,0.9c1.7,4.7,3.3,9.5,5,14.2c0.8,2.4,1.7,4.8,2.5,7.2c-0.7,0.1-0.5,0.7-0.5,1.1
		C188.3,84.3,188.3,88.8,188.3,93.2z"/>
	<path class="st13" d="M188.3,93.2c0-4.4,0-8.9,0-13.3c0-0.4-0.2-1,0.5-1.1c1.4-2.2,2.2-4.7,3.2-7c1.8-4.1,3.6-8.2,5.4-12.3
		c0.5,0.3,0.3,0.8,0.3,1.3c0,2.8,0,5.6,0,8.4c0,0.7-0.1,1.4,0.7,1.8c-2.4,5.6-4.7,11.2-7.3,16.7c-0.7,1.5-1.2,3.1-1.9,4.6
		C189,92.7,189,93.3,188.3,93.2z"/>
	<path class="st3" d="M81.6,82.8c-1.9-4.6-3.8-9.1-5.7-13.7c-1.6-3.9-3.2-7.8-4.8-11.7c-0.4-1-0.1-1.1,0.8-1.1c1.2,0.1,2.4,0,3.6,0
		c0.5,0,0.9,0.1,1.2,0.7c1.9,4.7,3.9,9.4,5.8,14.1c0.1,0.2,0.1,0.5,0.2,0.7c-0.3,0.4-0.3,0.9-0.3,1.4c0,2.8,0,5.6,0,8.4
		C82.3,82.2,82.5,82.8,81.6,82.8z"/>
	<path class="st4" d="M53.8,81.3c-1.7,3.8-3.3,7.6-5,11.4c-0.2,0.5-0.6,0.6-1.1,0.6c-1.6,0-3.1,0-4.7,0c-0.9,0-1-0.2-0.6-1
		c3.1-6.9,6.2-13.9,9.3-20.9c0.4-0.9,0.6-1.9,1.3-2.7c0.3,0.5,0.3,1,0.3,1.5c0,3,0,6,0,9C53.2,80.1,53.3,80.8,53.8,81.3z"/>
	<path class="st14" d="M146.1,64c-0.7-0.1-0.5-0.7-0.5-1.1c0-1.5,0-3.1,0-4.6c2-1.2,4.2-1.9,6.5-2.1c4.2-0.4,8.2,0,11.9,2.3
		c-0.5,1.5-0.1,3.1-0.3,4.6c0,0.4,0,0.9,0,1.3c-3.1-2.5-6.6-3.7-10.6-3.2C150.5,61.5,148.1,62.4,146.1,64z"/>
	<path class="st10" d="M275.6,73.4c0.5,0.4,0.5,1,0.5,1.5c0,4.8,0,9.7,0,14.5c0,0.6-0.2,1.2-0.3,1.8c-2.5-3-4.6-6.3-6.9-9.4
		c-1.1-1.5-2.2-3.1-3.3-4.6c0-0.2,0-0.4,0-0.6c1,0,2.1-0.1,3.1,0C271.7,76.9,273.9,75.7,275.6,73.4z"/>
	<path class="st6" d="M92.4,66.4c1.3-3.2,2.5-6.3,3.8-9.5c0.2-0.4,0.5-0.6,1-0.6c1.3,0,2.6,0,3.8,0c0.8,0,1,0.3,0.7,1.1
		c-2,4.7-3.9,9.5-5.9,14.3c-0.8,2-1.7,4-2.6,6c-0.3-0.5-0.3-1-0.3-1.5c0-2.6,0-5.1,0-7.7C93,67.7,92.9,67,92.4,66.4z"/>
	<path class="st12" d="M63.7,67.4c1.9,4,3.7,8.1,5.4,12.2c-0.8,0.1-0.5,0.8-0.5,1.2c0,3.2,0,6.5,0,9.7c0,0.4,0.3,1-0.5,1.2
		c-1.8-4-3.7-7.9-5.3-12c0.3-0.5,0.3-1.1,0.3-1.7c0-3.2,0-6.3,0-9.5C63.2,68.1,63,67.5,63.7,67.4z"/>
	<path class="st2" d="M240.9,93.2c0-2.1,0-4.3,0-6.4c3.6,0,7.2,0,10.8-0.1c0.6,0,0.8,0.2,0.8,0.8c0,1.6,0,3.3,0,4.9
		c0,0.6-0.3,0.8-0.8,0.8C248.1,93.3,244.5,93.5,240.9,93.2z"/>
	<path class="st10" d="M276.1,57.9c0,2.6,0,5.1,0,7.7c0,0.6,0,1.2-0.5,1.6c-1.6-2.4-3.9-3.6-6.8-3.3c-0.8,0.1-1.6,0-2.3,0
		c0-2.4,0-4.9,0-7.3C269.8,56.3,273.1,56.2,276.1,57.9z"/>
	<path class="st13" d="M63.7,67.4c-0.7,0.1-0.6,0.7-0.6,1.2c0,3.2,0,6.3,0,9.5c0,0.6,0,1.1-0.3,1.7c-1.5-2.5-2.4-5.2-3.6-7.8
		c-0.2-0.4-0.2-0.9-0.8-1c-0.8-0.1-0.5-0.8-0.5-1.2c0-3.1,0-6.2,0-9.3c0-0.5,0.2-1.1-0.7-1.1c0.4-1,0.8-2,1.3-3c0.1,0,0.2,0,0.4,0
		C60.5,60,62.1,63.7,63.7,67.4z"/>
	<path class="st14" d="M81.6,82.8c0.9,0,0.7-0.6,0.7-1.1c0-2.8,0-5.6,0-8.4c0-0.5,0-1,0.3-1.4c1.2,2.9,2.5,5.8,3.8,8.9
		c0.4-0.8,0.7-1.5,1-2.2c0.7,0.2,0.4,0.7,0.4,1.1c0,2.8,0,5.6,0,8.4c0,0.6,0,1.2,0.5,1.6c-0.4,1-0.7,1.9-1.1,2.9
		c-0.1,0.3-0.2,0.7-0.7,0.8c-0.5,0-0.7-0.4-0.8-0.8c-1.1-2.7-2.2-5.3-3.3-8C82,84,81.8,83.4,81.6,82.8z"/>
	<path class="st2" d="M238.9,79.9c0-2.1,0-4.3,0-6.4c3.3,0,6.6,0,9.9-0.1c0.6,0,0.8,0.2,0.8,0.8c0,1.7,0,3.3,0,5
		c0,0.6-0.3,0.8-0.8,0.8C245.5,79.9,242.2,80.1,238.9,79.9z"/>
	<path class="st9" d="M88.2,89.7c-0.5-0.4-0.5-1-0.5-1.6c0-2.8,0-5.6,0-8.4c0-0.4,0.2-1-0.4-1.1c1.7-4.1,3.4-8.1,5.1-12.2
		c0.5,0.6,0.5,1.2,0.5,1.9c0,2.6,0,5.1,0,7.7c0,0.5,0,1.1,0.3,1.5c-1.3,3.2-2.6,6.4-3.8,9.5C89,88,88.6,88.9,88.2,89.7z"/>
	<path class="st1" d="M20,77.1c0-0.2,0-0.3,0-0.5c1.3,0,2.5,0,3.8,0.1c2.1,0.1,4-0.5,5.5-2c0.3,0.5,0.4,1,0.4,1.5c0,4,0,8,0,12
		c0,0.6-0.2,1-0.3,1.6c-2.9-3.9-5.7-7.8-8.6-11.8C20.6,77.7,20.4,77.2,20,77.1z"/>
	<path class="st11" d="M57.2,59.3c0.9,0,0.7,0.6,0.7,1.1c0,3.1,0,6.2,0,9.3c0,0.4-0.3,1,0.5,1.2c-1.4,3.5-3,7-4.6,10.4
		c-0.6-0.5-0.6-1.2-0.6-1.9c0-3,0-6,0-9c0-0.5,0-1.1-0.3-1.5C54.3,65.6,55.7,62.4,57.2,59.3z"/>
	<path class="st2" d="M241.9,62.9c0-2.1,0-4.3,0-6.4c3-0.2,5.9,0,8.9-0.1c0.6,0,0.8,0.3,0.8,0.8c0,1.6,0,3.3,0,4.9
		c0,0.7-0.3,0.8-0.9,0.8C247.7,62.9,244.8,62.9,241.9,62.9z"/>
	<path class="st14" d="M145.8,91.5c0.1-1.9-0.2-3.9,0.3-5.8c1,0.5,1.8,1.4,2.9,1.8c2.2,0.8,4.5,1.1,6.8,1.1c-0.5,1.7-0.1,3.4-0.2,5
		C152.1,93.9,148.8,93.3,145.8,91.5z"/>
	<path class="st3" d="M68.2,91.7c0.7-0.2,0.5-0.8,0.5-1.2c0-3.2,0-6.5,0-9.7c0-0.4-0.3-1,0.5-1.2c1.5,3.3,3,6.5,4.4,9.8
		c0.5,1.1,1,2.2,1.5,3.3c0.3,0.6,0.2,0.8-0.5,0.8c-1.7,0-3.3,0-5,0C68.4,93.4,68.4,92.4,68.2,91.7z"/>
	<path class="st1" d="M22.7,63.8c0-2.4,0-4.9,0-7.3c2.2-0.3,4.4,0,6.5,0.8c-0.4,0.4-0.2,0.8-0.2,1.3c0,1.8,0,3.6,0,5.4
		c0,0.5-0.1,0.9-0.3,1.3C26.9,64,24.8,63.8,22.7,63.8z"/>
	<path class="st3" d="M180.3,56.5c0,4.1,0,8.1,0,12.2c0,0.6,0.1,1.2-0.5,1.7c-1.6-3.9-2.8-7.9-4.2-11.8c-0.8-2.3-0.8-2.3,1.7-2.3
		C178.3,56.4,179.3,56.2,180.3,56.5z"/>
</g>
</svg>
