<?xml version="1.0" encoding="utf-8"?>
<!-- Generator: Adobe Illustrator 26.5.1, SVG Export Plug-In . SVG Version: 6.00 Build 0)  -->
<svg version="1.0" id="Layer_1" xmlns="http://www.w3.org/2000/svg" xmlns:xlink="http://www.w3.org/1999/xlink" x="0px" y="0px"
	 viewBox="0 0 300 150" style="enable-background:new 0 0 300 150;" xml:space="preserve">
<g>
	<path d="M290.8,84.3c0,0.3-0.1,0.5-0.1,0.8c0,1.3-0.3,2.6-0.8,3.9c-0.9,2.2-2.4,3.8-4.4,4.9c-1.5,0.8-3.2,1.3-4.9,1.6
		c-1.8,0.3-3.6,0.4-5.4,0.3c-2.2-0.1-4.4-0.5-6.5-1.3c-1-0.4-2-1-2.8-1.6c-2.1-1.7-3.1-3.9-3.5-6.5c-0.2-1.5-0.2-3-0.2-4.5
		c0-5.1,0-10.2,0-15.3c0-1.6,0.1-3.2,0.6-4.8c0.9-3.3,3-5.5,6.2-6.8c1.5-0.6,3-0.9,4.5-1.1c1.4-0.2,2.8-0.2,4.2-0.1
		c2.3,0.1,4.6,0.4,6.7,1.3c1,0.4,2,1,2.9,1.7c1.7,1.5,2.7,3.4,3.1,5.6c0.2,0.8,0.3,1.7,0.2,2.5c0,0.9,0,1.8,0,2.7
		c-0.3,0.1-9.2,0.1-10,0c0-0.1,0-0.3,0-0.4c0-0.9,0-1.8-0.1-2.7c0-0.3-0.1-0.7-0.2-1c-0.4-1.2-1.1-2-2.3-2.4c-1.1-0.3-2.1-0.4-3.2,0
		c-1.3,0.4-2.1,1.3-2.4,2.5c-0.2,0.6-0.2,1.3-0.2,1.9c0,4.1,0,8.2,0,12.3c0,2.2,0,4.3,0,6.5c0,0.5,0,0.9,0.1,1.4
		c0.2,1.3,1,2.2,2.2,2.6c1.3,0.5,2.6,0.5,3.9,0c1.3-0.5,2.1-1.5,2.2-2.9c0-0.3,0.1-0.6,0.1-0.9c0-1.9,0-3.8,0-5.7c0-0.1,0-0.3,0-0.4
		c-1.4,0-2.7,0-4,0c-0.1-0.3-0.1-5.2,0-5.8c0.1,0,0.2,0,0.3,0c4.5,0,9.1,0,13.6,0c0.1,0,0.1,0,0.2,0
		C290.8,76.4,290.8,80.3,290.8,84.3z"/>
	<path d="M24.9,53.4c0.2,0,0.4,0.1,0.6,0.1c1.8,0.1,3.6,0.4,5.4,1c1.2,0.4,2.3,0.9,3.2,1.7c1.7,1.3,2.6,3,3,5.1
		c0.2,0.8,0.2,1.6,0.2,2.4c0,0.8,0,1.5,0,2.3c0,0.1,0,0.3,0,0.4c-0.3,0.1-9.4,0.1-10,0c0-0.1,0-0.3,0-0.4c0-0.7,0-1.4,0-2.1
		c0-0.4,0-0.7-0.1-1.1c-0.4-1.4-1.5-2.4-3-2.5c-0.5,0-1.1,0-1.6,0.1c-1.5,0.2-2.4,1.2-2.7,2.7c-0.3,1.5,0,2.8,1.2,3.9
		c0.8,0.7,1.7,1.4,2.7,1.9c1.6,0.9,3.2,1.7,4.7,2.6c1.6,0.9,3.1,1.7,4.6,2.8c1,0.8,2,1.6,2.9,2.5c1.4,1.5,2.1,3.3,2.3,5.4
		c0.2,1.9,0.1,3.7-0.2,5.6c-0.5,3.1-2.2,5.4-4.9,6.9c-1.5,0.8-3.2,1.3-4.9,1.6c-0.8,0.1-1.6,0.2-2.3,0.3c-0.1,0-0.2,0-0.3,0.1
		c-1.1,0-2.1,0-3.2,0c-0.1,0-0.2-0.1-0.3-0.1c-0.4,0-0.7-0.1-1.1-0.1c-1.6-0.2-3.3-0.5-4.8-1.1c-1.3-0.5-2.5-1.2-3.6-2.2
		c-1.9-1.8-2.8-4-3.1-6.6c0-0.3-0.1-0.6-0.2-0.9c0-1.3,0-2.6,0-3.8c0.2,0,0.3,0,0.5,0c3.3,0,6.5,0,9.8,0c0.2,0,0.3,0,0.5,0
		c0,0.2,0,0.3,0,0.5c0,1.2,0,2.3,0,3.5c0,1.7,1,2.9,2.6,3.4c1,0.3,2.1,0.3,3.1,0c1.1-0.3,1.8-1,2.1-2c0.1-0.4,0.2-0.9,0.3-1.3
		c0.2-1.2-0.1-2.4-0.9-3.3c-0.4-0.5-0.8-0.9-1.3-1.3c-1.1-0.9-2.2-1.6-3.4-2.3c-1.7-0.9-3.4-1.9-5-2.8c-1.6-0.9-3.1-1.9-4.5-3.2
		c-0.9-0.8-1.6-1.7-2.2-2.7c-0.8-1.4-1.1-3-1.2-4.6c-0.1-1.2,0.1-2.5,0.3-3.7c0.4-2.2,1.5-4,3.2-5.4c0.9-0.7,1.9-1.3,3-1.7
		C18,54,20,53.7,22,53.5c0.3,0,0.5-0.1,0.8-0.1C23.5,53.4,24.2,53.4,24.9,53.4z"/>
	<path d="M86.6,54.8c0.2,0,0.3,0,0.5,0c5.2,0,10.3,0,15.5,0c0.1,0,0.1,0,0.2,0c0.2,0,0.3,0.1,0.3,0.3c0.1,0.6,0.2,1.3,0.3,1.9
		c0.4,2.3,0.7,4.5,1.1,6.8c0.4,2.4,0.8,4.8,1.2,7.2c0.4,2.2,0.7,4.4,1.1,6.6c0.3,2.1,0.7,4.1,1,6.2c0.1,0.7,0.2,1.4,0.3,2
		c0,0.1,0,0.1,0.1,0.2c1.7-10.4,3.4-20.8,5-31.2c5.5,0,10.9,0,16.3,0c0,0.1,0,0.2,0,0.3c0.1,2.5,0.1,5,0.2,7.4
		c0.1,3.9,0.2,7.9,0.3,11.8c0,2.1,0.1,4.1,0.1,6.2c0.1,3.9,0.2,7.8,0.3,11.7c0,0.8,0,1.5,0.1,2.3c0,0.1,0,0.3,0,0.5
		c-3.3,0-6.7,0-10,0c-0.1-12.3-0.2-24.6-0.3-37c-0.2,0.3-2.5,12.7-3.5,18.5c-1.1,6.2-2.3,12.3-3.4,18.5c-3.4,0-6.8,0-10.2,0
		c-2.3-12.3-4.6-24.6-6.9-37c0,0-0.1,0-0.1,0c-0.1,12.3-0.2,24.6-0.3,36.9c-0.3,0.1-9.5,0.1-10,0C86,81.6,86.3,68.2,86.6,54.8z"/>
	<path d="M237.4,94.5c-3.4-11.1-6.7-22.2-10.1-33.2c0,0-0.1,0-0.1,0c0.2,11.1,0.4,22.1,0.6,33.2c-3.3,0-6.5,0-9.8,0
		c0-13.2,0-26.5,0-39.7c0.3-0.1,14.4-0.1,14.9,0c3.1,10.7,6.3,21.4,9.4,32.1c0,0,0,0,0.1,0c0-0.1,0-0.2,0-0.3
		c-0.1-3.9-0.1-7.8-0.2-11.7c-0.1-3.7-0.1-7.3-0.2-11c0-2.9-0.1-5.8-0.1-8.7c0-0.2,0-0.3,0-0.5c0.4-0.1,9.5-0.1,9.9,0
		c0,13.2,0,26.4,0,39.7C246.9,94.5,242.1,94.5,237.4,94.5z"/>
	<path d="M196.5,54.8c3.4,0,6.7,0,10.1,0c0,0.2,0,0.4,0,0.5c0,4.3,0,8.6,0,12.9c0,5,0,10,0,14.9c0,0.9,0,1.8-0.1,2.8
		c-0.1,1.3-0.3,2.5-0.8,3.7c-1,2.4-2.7,4-5,5c-1.4,0.6-2.8,1-4.2,1.2c-2,0.3-3.9,0.3-5.9,0.2c-2.1-0.1-4.2-0.5-6.2-1.3
		c-2.1-0.9-3.7-2.3-4.7-4.3c-0.6-1.2-1-2.5-1.1-3.8c-0.1-1-0.2-1.9-0.2-2.9c0-9.5,0-19,0-28.6c0-0.1,0-0.3,0-0.5c0.2,0,0.3,0,0.4,0
		c3.1,0,6.2,0,9.3,0c0.1,0,0.2,0,0.4,0c0,0.2,0,0.3,0,0.4c0,9.8,0,19.6,0,29.4c0,0.6,0,1.1,0.2,1.7c0.4,1.6,1.7,2.6,3.4,2.7
		c0.7,0,1.3,0,1.9-0.2c1.5-0.5,2.2-1.6,2.4-3.1c0.1-0.5,0.1-1,0.1-1.5c0-6.8,0-13.5,0-20.3c0-2.8,0-5.7,0-8.5
		C196.5,55.2,196.5,55,196.5,54.8z"/>
	<path d="M52.4,54.8c6,0,11.9,0,17.9,0c2.5,13.4,4.9,26.8,7.4,40.2c-3.6,0-7.1,0-10.7,0c-1.8-12.3-3.6-24.7-5.5-37c0,0-0.1,0-0.1,0
		c-1.9,12.3-3.7,24.7-5.6,37c-3.6,0-7.2,0-10.8,0C47.4,81.6,49.9,68.2,52.4,54.8z"/>
	<path d="M158.2,66.5c0-0.2,0-0.3,0-0.5c0-0.7,0-1.5,0-2.2c-0.1-1.9-1.4-3.2-3.3-3.3c-0.5,0-1,0-1.5,0.1c-1.7,0.3-2.4,1.5-2.6,2.8
		c-0.1,0.5-0.1,1.1,0,1.6c0.1,0.5,0.3,1,0.6,1.4c0.4,0.5,0.9,0.9,1.4,1.3c1,0.8,2.1,1.4,3.2,2c1.6,0.9,3.3,1.7,4.9,2.6
		c1.4,0.8,2.7,1.6,3.9,2.6c0.7,0.6,1.3,1.2,1.9,1.8c1.2,1.4,2,3,2.2,4.8c0.3,2.1,0.2,4.2-0.2,6.3c-0.6,3.3-2.6,5.6-5.6,7
		c-1.6,0.7-3.3,1.1-5,1.3c-1.7,0.2-3.4,0.2-5.1,0.1c-2.2-0.1-4.3-0.5-6.3-1.3c-1.5-0.6-2.8-1.5-3.9-2.7c-1.4-1.6-2.1-3.5-2.4-5.6
		c-0.2-1.6-0.1-3.2-0.1-4.8c0,0,0-0.1,0-0.1c0,0,0,0,0,0c0,0,0,0,0,0c0.1,0,0.2,0,0.4,0c3.4,0,6.7,0,10.1,0c0,0,0,0,0.1,0.1
		c0,0.1,0,0.3,0,0.4c0,1.1,0,2.2,0,3.4c0,0.3,0,0.7,0.1,1c0.3,1.2,1.1,2,2.3,2.4c1,0.3,2.1,0.3,3.2,0c1.2-0.3,2-1.2,2.3-2.4
		c0.2-0.7,0.2-1.4,0.2-2.1c-0.1-0.7-0.3-1.3-0.7-1.8c-0.5-0.7-1-1.2-1.6-1.7c-0.9-0.7-2-1.4-3-2c-1.8-1-3.6-2-5.4-3
		c-1.6-0.9-3.1-1.9-4.4-3.2c-1-0.9-1.8-1.9-2.4-3.1c-0.5-1.1-0.8-2.3-0.9-3.5c-0.1-1.6,0-3.2,0.4-4.8c0.7-2.7,2.3-4.6,4.8-5.9
		c1.5-0.8,3.1-1.2,4.8-1.5c2.1-0.3,4.2-0.4,6.4-0.2c1.9,0.1,3.7,0.5,5.5,1.2c0.9,0.4,1.8,0.8,2.5,1.4c1.8,1.4,2.7,3.3,3,5.5
		c0.2,1.5,0.1,2.9,0.1,4.4c0,0,0,0.1,0,0.1C167.8,66.5,158.8,66.5,158.2,66.5z"/>
</g>
</svg>
