<?xml version="1.0" encoding="utf-8"?>
<!-- Generator: Adobe Illustrator 26.5.1, SVG Export Plug-In . SVG Version: 6.00 Build 0)  -->
<svg version="1.1" id="Layer_1" xmlns="http://www.w3.org/2000/svg" xmlns:xlink="http://www.w3.org/1999/xlink" x="0px" y="0px"
	 viewBox="0 0 300 150" style="enable-background:new 0 0 300 150;" xml:space="preserve">
<style type="text/css">
	.st0{clip-path:url(#SVGID_00000173128276417087635130000004884756034174031490_);}
	.st1{clip-path:url(#SVGID_00000041985547343149137930000013352706748263017405_);fill-rule:evenodd;clip-rule:evenodd;}
	.st2{clip-path:url(#SVGID_00000031208550675438621180000005118288202723131025_);}
	.st3{clip-path:url(#SVGID_00000051347714819754174240000006076375490793887621_);}
	.st4{clip-path:url(#SVGID_00000039114204069171931900000014316306116557179798_);}
	.st5{clip-path:url(#SVGID_00000091702731924915349980000017208183781160434859_);}
	.st6{clip-path:url(#SVGID_00000124871063670566925390000016960324018254672286_);}
	.st7{clip-path:url(#SVGID_00000090978443514830828340000012627729667712339391_);}
	.st8{clip-path:url(#SVGID_00000156552453099511605440000014831956947396635012_);fill-rule:evenodd;clip-rule:evenodd;}
	.st9{clip-path:url(#SVGID_00000098206586334929134690000002687236518720757912_);}
</style>
<g>
	<g>
		<g>
			<defs>
				<rect id="SVGID_1_" x="12.1" y="61.7" width="275.8" height="26.6"/>
			</defs>
			<clipPath id="SVGID_00000007416392981406594530000018043071647990117252_">
				<use xlink:href="#SVGID_1_"  style="overflow:visible;"/>
			</clipPath>
			<polygon style="clip-path:url(#SVGID_00000007416392981406594530000018043071647990117252_);" points="23.8,80.3 16.1,65.8 
				12.1,65.8 21.9,84 21.9,84.2 25.6,84.2 35.5,65.8 31.6,65.8 			"/>
		</g>
		<g>
			<defs>
				<rect id="SVGID_00000018216059427353158490000016804225671477030534_" x="12.1" y="61.7" width="275.8" height="26.6"/>
			</defs>
			<clipPath id="SVGID_00000045598838956768570150000018017806690551922817_">
				<use xlink:href="#SVGID_00000018216059427353158490000016804225671477030534_"  style="overflow:visible;"/>
			</clipPath>
			
				<polygon style="clip-path:url(#SVGID_00000045598838956768570150000018017806690551922817_);fill-rule:evenodd;clip-rule:evenodd;" points="
				46.6,65.8 43.2,65.8 43.2,84.2 46.6,84.2 			"/>
		</g>
		<g>
			<defs>
				<rect id="SVGID_00000140709486971575996160000007037152906230829965_" x="12.1" y="61.7" width="275.8" height="26.6"/>
			</defs>
			<clipPath id="SVGID_00000060717743394438154650000006001864070280656295_">
				<use xlink:href="#SVGID_00000140709486971575996160000007037152906230829965_"  style="overflow:visible;"/>
			</clipPath>
			<polygon style="clip-path:url(#SVGID_00000060717743394438154650000006001864070280656295_);" points="65.9,80.3 58,65.8 
				54.2,65.8 63.9,84 64,84.2 67.7,84.2 77.6,65.8 73.7,65.8 			"/>
		</g>
		<g>
			<defs>
				<rect id="SVGID_00000070804768240212234400000003376594835283102366_" x="12.1" y="61.7" width="275.8" height="26.6"/>
			</defs>
			<clipPath id="SVGID_00000018920116381180072920000004969238230319452045_">
				<use xlink:href="#SVGID_00000070804768240212234400000003376594835283102366_"  style="overflow:visible;"/>
			</clipPath>
			<path style="clip-path:url(#SVGID_00000018920116381180072920000004969238230319452045_);" d="M95.5,77h-8.2l4.1-7.7L95.5,77
				L95.5,77z M89.4,65.8l-9.7,18.3h3.9l2-4h11.6l2,4h3.9l-9.7-18.3H89.4L89.4,65.8z"/>
		</g>
		<g>
			<defs>
				<rect id="SVGID_00000118375842920287437140000003661848128214912438_" x="12.1" y="61.7" width="275.8" height="26.6"/>
			</defs>
			<clipPath id="SVGID_00000177477364257994647910000007946246019470135718_">
				<use xlink:href="#SVGID_00000118375842920287437140000003661848128214912438_"  style="overflow:visible;"/>
			</clipPath>
			<polygon style="clip-path:url(#SVGID_00000177477364257994647910000007946246019470135718_);" points="134.9,76.5 126.6,65.8 
				122.4,65.8 122.4,84.2 125.9,84.2 125.9,70.1 134.8,81.4 143.8,70.1 143.8,84.2 147.4,84.2 147.4,65.8 143.3,65.8 			"/>
		</g>
		<g>
			<defs>
				<rect id="SVGID_00000175323514755116892450000014833612748627468975_" x="12.1" y="61.7" width="275.8" height="26.6"/>
			</defs>
			<clipPath id="SVGID_00000165198915076172674810000005975520853143730831_">
				<use xlink:href="#SVGID_00000175323514755116892450000014833612748627468975_"  style="overflow:visible;"/>
			</clipPath>
			<path style="clip-path:url(#SVGID_00000165198915076172674810000005975520853143730831_);" d="M170.9,77h-8.2l4.1-7.7L170.9,77
				L170.9,77z M164.8,65.8l-9.7,18.3h3.9l2-4h11.7l2,4h3.9l-9.7-18.3H164.8L164.8,65.8z"/>
		</g>
		<g>
			<defs>
				<rect id="SVGID_00000034795980203459192380000003939111414383098513_" x="12.1" y="61.7" width="275.8" height="26.6"/>
			</defs>
			<clipPath id="SVGID_00000112627311418566177700000001558359463046474932_">
				<use xlink:href="#SVGID_00000034795980203459192380000003939111414383098513_"  style="overflow:visible;"/>
			</clipPath>
			<path style="clip-path:url(#SVGID_00000112627311418566177700000001558359463046474932_);" d="M198.7,81h-8.8V69h8.2
				c1.9,0,3.5,0.5,4.6,1.7c1.2,1.1,1.7,2.7,1.7,4.4c0,1.7-0.5,3.1-1.6,4.2C201.7,80.4,200.4,81,198.7,81 M197.9,65.8h-11.6v18.3
				h12.1c2.7,0,4.9-0.8,6.8-2.4c2-1.7,2.9-4,2.9-6.5c0-2.8-0.9-5.2-2.8-6.8C203.6,66.8,201.1,65.8,197.9,65.8"/>
		</g>
		<g>
			<defs>
				<rect id="SVGID_00000087392855989194596250000007256473533240975256_" x="12.1" y="61.7" width="275.8" height="26.6"/>
			</defs>
			<clipPath id="SVGID_00000073715927212617511760000012236496342461842563_">
				<use xlink:href="#SVGID_00000087392855989194596250000007256473533240975256_"  style="overflow:visible;"/>
			</clipPath>
			<path style="clip-path:url(#SVGID_00000073715927212617511760000012236496342461842563_);" d="M221.1,69h10.1
				c2.3,0,3.5,0.9,3.5,2.7c0,1.7-1.1,2.5-3.2,2.5h-10.4L221.1,69L221.1,69z M236.8,75.5c0.9-0.9,1.3-2.3,1.3-3.9
				c0-1.7-0.5-3.2-1.7-4.2c-1.1-1.1-2.7-1.6-4.5-1.6h-14.2v18.3h3.5v-6.8h8.5l4.8,6.8h4.1l-4.8-7C235.1,76.9,236.1,76.3,236.8,75.5"
				/>
		</g>
		<g>
			<defs>
				<rect id="SVGID_00000133531660115001847460000005149810370773425832_" x="12.1" y="61.7" width="275.8" height="26.6"/>
			</defs>
			<clipPath id="SVGID_00000018207348903812669660000008405461889868680854_">
				<use xlink:href="#SVGID_00000133531660115001847460000005149810370773425832_"  style="overflow:visible;"/>
			</clipPath>
			
				<polygon style="clip-path:url(#SVGID_00000018207348903812669660000008405461889868680854_);fill-rule:evenodd;clip-rule:evenodd;" points="
				252.1,65.8 248.5,65.8 248.5,84.2 252.1,84.2 			"/>
		</g>
		<g>
			<defs>
				<rect id="SVGID_00000030449012643664567160000015385560808820924055_" x="12.1" y="61.7" width="275.8" height="26.6"/>
			</defs>
			<clipPath id="SVGID_00000060007944697339837530000003193869445962506645_">
				<use xlink:href="#SVGID_00000030449012643664567160000015385560808820924055_"  style="overflow:visible;"/>
			</clipPath>
			<path style="clip-path:url(#SVGID_00000060007944697339837530000003193869445962506645_);" d="M275.7,81h-8.8V69h8.2
				c1.9,0,3.5,0.5,4.6,1.7c1.2,1.1,1.7,2.7,1.7,4.4c0,1.7-0.5,3.1-1.6,4.2C278.9,80.4,277.4,81,275.7,81 M282.5,68.4
				c-1.9-1.7-4.4-2.5-7.6-2.5h-11.4v18.3h12.1c2.7,0,4.9-0.8,6.8-2.4c2-1.7,2.9-4,2.9-6.5C285.3,72.3,284.3,70.1,282.5,68.4"/>
		</g>
	</g>
</g>
</svg>
