<?xml version="1.0" encoding="utf-8"?>
<!-- Generator: Adobe Illustrator 26.5.1, SVG Export Plug-In . SVG Version: 6.00 Build 0)  -->
<svg version="1.0" id="Layer_1" xmlns="http://www.w3.org/2000/svg" xmlns:xlink="http://www.w3.org/1999/xlink" x="0px" y="0px"
	 viewBox="0 0 300 150" style="enable-background:new 0 0 300 150;" xml:space="preserve">
<style type="text/css">
	.st0{fill:#080505;}
	.st1{fill-rule:evenodd;clip-rule:evenodd;fill:#2FC0D2;}
</style>
<g>
	<path class="st0" d="M183.5,52.3c1.6,1,1.9,2.4,1.9,4.2c-0.1,6.7,0,13.4,0,20c-0.1,8.6-7.1,15.6-15.6,15.6
		c-8.5,0-15.4-6.8-15.6-15.3c-0.2-8.3,6.5-15.5,14.9-15.8c3.2-0.1,6.5,0,9.7,0c0.4,0,0.8,0,1.4,0c0-1.6,0.1-3.1,0-4.5
		c-0.1-1.8,0.3-3.2,1.9-4.1H183.5L183.5,52.3z M287,89.6c-0.1,0.3-0.3,0.5-0.4,0.8c-0.5,1.1-1.5,1.7-2.6,1.7
		c-2.6-0.1-5.2-0.2-7.8-0.2c-2.3-0.1-4.7,0.1-7-0.1c-8-0.9-13.9-7.9-13.7-16.1c0.3-7.9,6.7-14.5,14.6-15c8.1-0.5,15.1,5.1,16.4,13.1
		c0.1,0.7,0.3,1.3,0.4,2V89.6L287,89.6z M224.7,82.3c0-2.9-0.3-5.7,0.1-8.6c0.9-7.3,7.7-13.1,15-13.1c1.7,0,2.9,1.1,2.9,2.6
		c0,1.4-1.1,2.5-2.7,2.6c-6.3,0.4-10.2,4.6-10.3,11c0,4.1,0,8.1,0,12.2c0,1.8-1.1,3-2.6,3c-1.5,0-2.6-1.2-2.6-3c0-2.3,0-4.5,0-6.8
		C224.6,82.3,224.6,82.3,224.7,82.3L224.7,82.3z M246.2,76.3c0-4.2,0-8.3,0-12.5c0-0.6,0.1-1.2,0.3-1.7c0.5-1,1.5-1.5,2.6-1.4
		c1.1,0.2,2,1,2.2,2.1c0.1,0.4,0.1,0.8,0.1,1.3c0,8.2,0,16.4,0,24.7c0,0.4,0,0.8-0.1,1.2c-0.2,1.2-1.2,2.1-2.4,2.2
		c-1.2,0.1-2.3-0.7-2.6-1.9c-0.1-0.4-0.1-0.9-0.1-1.4C246.2,84.7,246.2,80.5,246.2,76.3L246.2,76.3z M122.4,73.7
		c-2.5-2.5-5.1-4.9-7.6-7.4c-0.8-0.8-1.2-1.6-0.8-2.8c0.3-1,1-1.6,2-1.8c1-0.2,1.8,0.2,2.6,0.9c3.2,3.2,6.5,6.3,9.7,9.5
		c0.3,0.3,0.7,0.6,1,1c2.1-2,4.2-4,6.2-6c1.5-1.5,3-3,4.6-4.4c1.3-1.3,3-1.3,4-0.2c1,1.1,0.9,2.6-0.4,3.9c-1.3,1.3-2.6,2.6-4,3.9
		l0,0l-6.7,6.6l0.7,0.7c0.1,0.1,0.2,0.1,0.3,0.2c1,1,2.1,2,3.1,3l0,0c2.2,2.2,4.5,4.3,6.7,6.5c1.6,1.5,1.1,3.8-0.8,4.4
		c-1.1,0.4-2.1,0-2.9-0.8c-3.3-3.3-6.7-6.5-10-9.8c-0.2-0.2-0.5-0.5-0.8-0.8c-1.7,1.6-3.3,3.2-5,4.8c-2,1.9-4,3.9-6,5.8
		c-1.6,1.5-3.9,0.8-4.4-1.2c-0.3-1.1,0.2-1.9,1-2.6c3.2-3.1,6.3-6.2,9.5-9.2c0.3-0.3,0.7-0.6,1.3-1.1L122.4,73.7L122.4,73.7
		L122.4,73.7z M220.4,76.3c0,8.5-7,15.5-15.5,15.5c-8.6,0-15.6-7-15.6-15.5c0-8.6,7-15.6,15.6-15.6
		C213.4,60.7,220.4,67.7,220.4,76.3L220.4,76.3z M179.9,66.2c-3.7,0-7.3-0.2-11,0c-6.1,0.4-10.2,5.6-9.4,11.7c0.6,5,5,8.9,10.1,8.9
		c5.1,0,9.8-3.7,10.2-8.7C180.2,74.2,179.9,70.2,179.9,66.2L179.9,66.2z M281.6,86.6c0-2.7,0-5.4,0-8.1c0-1.3,0-2.7-0.2-4
		c-0.8-5.2-5.6-9-10.9-8.6c-5.5,0.4-9.6,4.7-9.7,10.2c-0.1,5.3,3.9,10,9.2,10.4C273.7,86.8,277.6,86.6,281.6,86.6L281.6,86.6z
		 M215.2,76.3c0-5.7-4.5-10.3-10.3-10.3c-5.7,0-10.3,4.6-10.4,10.3c0,5.8,4.6,10.4,10.3,10.4C210.6,86.6,215.1,82,215.2,76.3
		L215.2,76.3z M146,79.1c-0.8,0-1.5,0-2.3,0c-1.3-0.1-2.3-1.1-2.3-2.3c0-1.2,1-2.2,2.3-2.2c1.5,0,3.1,0,4.6,0c1.3,0,2.3,1,2.3,2.3
		c0,1.2-1,2.2-2.3,2.3C147.6,79.2,146.8,79.1,146,79.1L146,79.1z"/>
	<path class="st1" d="M57.9,81.9L97.8,61c0.9-0.5,2.1-0.1,2.6,0.8c0.5,0.9,0.1,2.1-0.8,2.6L58.8,85.7c-0.6,0.3-1.2,0.3-1.8,0
		L16.2,64.4c-0.9-0.5-1.3-1.7-0.8-2.6c0.5-0.9,1.7-1.3,2.6-0.8L57.9,81.9L57.9,81.9z"/>
	<path class="st1" d="M57.9,70.9L18,91.7c-0.9,0.5-2.1,0.1-2.6-0.8c-0.5-0.9-0.1-2.1,0.8-2.6L57,67c0.6-0.3,1.2-0.3,1.8,0l40.8,21.3
		c0.9,0.5,1.3,1.7,0.8,2.6c-0.5,0.9-1.7,1.3-2.6,0.8L57.9,70.9L57.9,70.9z"/>
	<path class="st1" d="M58.7,55.3c-0.5-0.2-1.1-0.2-1.6,0L16.3,74.5c-0.7,0.3-1.1,1-1.1,1.7c0,0.7,0.4,1.4,1.1,1.7l40.8,19.2
		c0.5,0.2,1.1,0.2,1.6,0L99.5,78c0.7-0.3,1.1-1,1.1-1.7c0-0.7-0.4-1.4-1.1-1.7L58.7,55.3L58.7,55.3z M21.7,76.2l36.3,17l36.3-17
		l-36.3-17L21.7,76.2L21.7,76.2z"/>
</g>
</svg>
